<svg width="200" height="200" viewBox="0 0 200 200" fill="none" xmlns="http://www.w3.org/2000/svg">
<g opacity="0.05">
<path d="M73.334 60H33.334C33.334 45.274 45.28 33.334 60 33.334V20C37.916 20 20 37.904 20 60V113.334C20 120.664 26.002 126.666 33.334 126.666H73.334C80.664 126.666 86.666 120.664 86.666 113.334V73.334C86.666 66.002 80.664 60 73.334 60Z" fill="#47414F"/>
<path d="M140 73.334V86.666C154.72 86.666 166.666 98.608 166.666 113.334H126.666C119.336 113.334 113.334 119.336 113.334 126.666V166.666C113.334 173.998 119.336 180 126.666 180H166.666C173.998 180 180 173.998 180 166.666V113.334C180 91.236 162.084 73.334 140 73.334Z" fill="#47414F"/>
</g>
</svg>
