<svg width="52" height="58" viewBox="0 0 52 58" fill="none" xmlns="http://www.w3.org/2000/svg">
<path d="M30.0415 45.25H20.0415V51.5V57.75H40.0415V51.5V45.25H30.0415Z" fill="#D7DEED"/>
<path d="M45.0415 51.5H46.2915V57.75H40.0415V51.5H45.0415Z" fill="#2B2B2B"/>
<path d="M20.0415 51.5V57.75H2.5415V51.5H5.0415H15.0415H20.0415Z" fill="#2B2B2B"/>
<path d="M51.2915 17.75V51.5H46.2915H45.0415V14L51.2915 17.75Z" fill="#5B5A57"/>
<path d="M36.2915 15.4587L30.0415 16.5V37.75V45.25H40.0415V51.5H45.0415V14L36.2915 15.4587Z" fill="#747371"/>
<path d="M36.2915 5.25V15.4587L30.0415 16.5V0.25L36.2915 5.25Z" fill="#323133"/>
<path d="M15.0415 7.08375V17.75V51.5H20.0415V45.25H30.0415V37.75V16.5V0.25L15.0415 7.08375Z" fill="#3C3B3D"/>
<path d="M5.0415 14V51.5H15.0415V17.75L5.0415 14Z" fill="#414A56"/>
<path d="M5.0415 14V51.5H2.5415H0.0415039V17.75L5.0415 14Z" fill="#57606F"/>
<path d="M40.0415 29H42.5415V32.75H40.0415V29Z" fill="#FEBE76"/>
<path d="M40.0415 24H42.5415V27.75H40.0415V24Z" fill="#FEBE76"/>
<path d="M40.0415 19H42.5415V22.75H40.0415V19Z" fill="#FEBE76"/>
<path d="M36.2915 34H38.7915V37.75H36.2915V34Z" fill="#FEBE76"/>
<path d="M36.2915 29H38.7915V32.75H36.2915V29Z" fill="#FEBE76"/>
<path d="M36.2915 24H38.7915V27.75H36.2915V24Z" fill="#FEBE76"/>
<path d="M36.2915 19H38.7915V22.75H36.2915V19Z" fill="#FEBE76"/>
<path d="M23.7915 51.5H36.2915V54H23.7915V51.5Z" fill="#AFB9D2"/>
<path d="M23.7915 47.75H36.2915V50.25H23.7915V47.75Z" fill="#AFB9D2"/>
<path d="M32.5415 39H35.0415V42.75H32.5415V39Z" fill="#FEBE76"/>
<path d="M32.5415 34H35.0415V37.75H32.5415V34Z" fill="#FEBE76"/>
<path d="M32.5415 29H35.0415V32.75H32.5415V29Z" fill="#FEBE76"/>
<path d="M32.5415 24H35.0415V27.75H32.5415V24Z" fill="#FEBE76"/>
<path d="M32.5415 19H35.0415V22.75H32.5415V19Z" fill="#FEBE76"/>
<path d="M22.5415 27.75H25.0415V32.75H22.5415V27.75Z" fill="#FEBE76"/>
<path d="M22.5415 21.5H25.0415V26.5H22.5415V21.5Z" fill="#FEBE76"/>
<path d="M22.5415 15.25H25.0415V20.25H22.5415V15.25Z" fill="#FEBE76"/>
<path d="M22.5415 9H25.0415V14H22.5415V9Z" fill="#FEBE76"/>
<path d="M18.7915 34H21.2915V39H18.7915V34Z" fill="#FEBE76"/>
<path d="M18.7915 27.75H21.2915V32.75H18.7915V27.75Z" fill="#FEBE76"/>
<path d="M18.7915 21.5H21.2915V26.5H18.7915V21.5Z" fill="#FEBE76"/>
<path d="M18.7915 15.25H21.2915V20.25H18.7915V15.25Z" fill="#FEBE76"/>
<path d="M18.7915 9H21.2915V14H18.7915V9Z" fill="#FEBE76"/>
<path d="M8.7915 40.25H11.2915V45.25H8.7915V40.25Z" fill="#FEBE76"/>
<path d="M8.7915 34H11.2915V39H8.7915V34Z" fill="#FEBE76"/>
<path d="M8.7915 27.75H11.2915V32.75H8.7915V27.75Z" fill="#FEBE76"/>
<path d="M8.7915 21.5H11.2915V26.5H8.7915V21.5Z" fill="#FEBE76"/>
</svg>
