<svg width="64" height="64" viewBox="0 0 64 64" fill="none" xmlns="http://www.w3.org/2000/svg">
<g clip-path="url(#clip0_121_1301)">
<path d="M47.8481 0.950745C46.7316 0.950745 45.7209 1.39974 44.9876 2.13324C44.2542 2.86649 43.8051 3.87062 43.8051 4.98699V54.9895C43.8051 55.5444 43.6928 56.0795 43.4879 56.5617C43.3888 56.7997 43.2633 57.0307 43.1179 57.2424C43.0453 57.3546 42.9726 57.4536 42.8867 57.5527C42.8074 57.6585 42.7216 57.7511 42.6291 57.8434H42.6224C41.8892 58.5769 40.8784 59.0259 39.7619 59.0259H4.98682V4.98712C4.98682 3.87074 5.43607 2.86649 6.16932 2.13337C6.90257 1.39987 7.91332 0.95087 9.02982 0.95087L47.8481 0.950745Z" fill="#E8F1F8"/>
<path opacity="0.12" d="M47.8481 0.950745C46.7316 0.950745 45.7209 1.40012 44.9876 2.13324C44.2542 2.86649 43.8051 3.87062 43.8051 4.98699V54.9895C43.8051 55.5446 43.6928 56.0797 43.4879 56.562C43.3888 56.7997 43.2633 57.031 43.1179 57.2422C43.0453 57.3545 42.9726 57.4535 42.8867 57.5529C42.8074 57.6584 42.7216 57.7509 42.6291 57.8435H42.6224C41.8892 58.5767 40.8784 59.026 39.7619 59.026H4.98682V53.3314C22.9888 49.9621 36.6174 34.1601 36.6174 15.1804V0.950745H47.8481Z" fill="black"/>
<path d="M39.7623 59.0259H4.98043C2.75418 59.0259 0.950684 57.2159 0.950684 54.9896V51.9507H35.7324V54.9896C35.7324 57.2159 37.5359 59.0259 39.7623 59.0259Z" fill="#ACBADF"/>
<path d="M55.9277 46.844H43.8052V4.98712C43.8052 3.87074 44.2544 2.86649 44.9877 2.13337C45.7209 1.39987 46.7317 0.950867 47.8482 0.950867C50.0744 0.950867 51.8846 2.76074 51.8846 4.98712V42.801C51.8847 45.0341 53.6948 46.844 55.9277 46.844Z" fill="#ACBADF"/>
<path d="M51.8862 17.8538V42.8023C51.8862 45.0338 53.6951 46.8428 55.9266 46.8428C58.1581 46.8428 59.967 45.0338 59.967 42.8023V17.8538H51.8862Z" fill="#E8F1F8"/>
<path d="M63.0487 32.8719V60.6287C63.0487 61.9655 61.965 63.0491 60.6283 63.0491H40.5698C39.233 63.0491 38.1494 61.9655 38.1494 60.6287V32.8719C38.1494 31.5351 39.233 30.4515 40.5698 30.4515H60.6283C61.965 30.4515 63.0487 31.5351 63.0487 32.8719Z" fill="#475DA9"/>
<path opacity="0.12" d="M63.0494 32.8722V60.6285C63.0494 61.9657 61.9663 63.0488 60.629 63.0488H40.5698C39.2325 63.0488 38.1494 61.9657 38.1494 60.6285V59.6936H44.857C53.0532 59.6936 59.6942 53.0526 59.6942 44.8595V30.4518H60.629C61.9663 30.4518 63.0494 31.535 63.0494 32.8722Z" fill="black"/>
<path d="M59.7209 40.9284V34.5603C59.7209 34.059 59.3145 33.6526 58.8133 33.6526H42.3857C41.8844 33.6526 41.478 34.059 41.478 34.5603V40.9284C41.478 41.4296 41.8844 41.836 42.3857 41.836H58.8133C59.3147 41.8361 59.7209 41.4298 59.7209 40.9284Z" fill="#ACBADF"/>
<path d="M46.1465 45.4929V46.9721C46.1465 47.6236 45.6184 48.1519 44.9668 48.1519H42.6573C42.0058 48.1519 41.4775 47.6237 41.4775 46.9721V45.4929C41.4775 44.8414 42.0057 44.3131 42.6573 44.3131H44.9668C45.6183 44.3131 46.1465 44.8414 46.1465 45.4929Z" fill="#F78721"/>
<path d="M52.9336 45.4929V46.9721C52.9336 47.6236 52.4055 48.1519 51.7539 48.1519H49.4444C48.7929 48.1519 48.2646 47.6237 48.2646 46.9721V45.4929C48.2646 44.8414 48.7928 44.3131 49.4444 44.3131H51.7539C52.4054 44.3131 52.9336 44.8414 52.9336 45.4929Z" fill="#E8F1F8"/>
<path d="M59.7208 45.4929V46.9721C59.7208 47.6236 59.1926 48.1519 58.541 48.1519H56.2315C55.58 48.1519 55.0518 47.6237 55.0518 46.9721V45.4929C55.0518 44.8414 55.5799 44.3131 56.2315 44.3131H58.541C59.1926 44.3131 59.7208 44.8414 59.7208 45.4929Z" fill="#E8F1F8"/>
<path d="M46.1465 51.3405V52.8198C46.1465 53.4713 45.6184 53.9995 44.9668 53.9995H42.6573C42.0058 53.9995 41.4775 53.4714 41.4775 52.8198V51.3405C41.4775 50.689 42.0057 50.1608 42.6573 50.1608H44.9668C45.6183 50.1608 46.1465 50.689 46.1465 51.3405Z" fill="#E8F1F8"/>
<path d="M52.9336 51.3405V52.8198C52.9336 53.4713 52.4055 53.9995 51.7539 53.9995H49.4444C48.7929 53.9995 48.2646 53.4714 48.2646 52.8198V51.3405C48.2646 50.689 48.7928 50.1608 49.4444 50.1608H51.7539C52.4054 50.1608 52.9336 50.689 52.9336 51.3405Z" fill="#E8F1F8"/>
<path d="M46.1465 57.1881V58.6674C46.1465 59.3189 45.6184 59.8471 44.9668 59.8471H42.6573C42.0058 59.8471 41.4775 59.319 41.4775 58.6674V57.1881C41.4775 56.5366 42.0057 56.0084 42.6573 56.0084H44.9668C45.6183 56.0084 46.1465 56.5366 46.1465 57.1881Z" fill="#E8F1F8"/>
<path d="M52.9336 57.1881V58.6674C52.9336 59.3189 52.4055 59.8471 51.7539 59.8471H49.4444C48.7929 59.8471 48.2646 59.319 48.2646 58.6674V57.1881C48.2646 56.5366 48.7928 56.0084 49.4444 56.0084H51.7539C52.4054 56.0084 52.9336 56.5366 52.9336 57.1881Z" fill="#E8F1F8"/>
<path d="M59.7198 51.3391V58.6655C59.7198 59.3195 59.1913 59.848 58.5439 59.848H56.2318C55.5778 59.848 55.0493 59.3195 55.0493 58.6655V51.3391C55.0493 50.6918 55.5778 50.1634 56.2318 50.1634H58.5439C59.1912 50.1634 59.7198 50.6918 59.7198 51.3391Z" fill="#FDCF17"/>
<path d="M55.7726 40.8908C54.6036 40.8908 53.6523 39.9391 53.6523 38.7701V36.7186C53.6523 35.5496 54.6036 34.598 55.7726 34.598C56.942 34.598 57.8932 35.5496 57.8932 36.7186V38.7701C57.8931 39.9391 56.9418 40.8908 55.7726 40.8908ZM55.7726 35.9193C55.332 35.9193 54.9736 36.278 54.9736 36.7186V38.7701C54.9736 39.2108 55.332 39.5695 55.7726 39.5695C56.2132 39.5695 56.572 39.2108 56.572 38.7701V36.7186C56.5718 36.278 56.2132 35.9193 55.7726 35.9193Z" fill="#474747"/>
<path d="M26.4175 14.0217C26.4175 18.5681 22.7347 22.251 18.1907 22.251C13.6467 22.251 9.96143 18.5681 9.96143 14.0217C9.96143 9.47774 13.6467 5.79486 18.1907 5.79486C22.7347 5.79486 26.4175 9.47774 26.4175 14.0217Z" fill="#FDCF17"/>
<path d="M18.7024 17.787H16.125C15.7601 17.787 15.4644 17.4915 15.4644 17.1264C15.4644 16.7612 15.7601 16.4657 16.125 16.4657H18.7024C19.194 16.4657 19.5936 16.0657 19.5936 15.5747C19.5936 15.0831 19.194 14.6831 18.7024 14.6831H17.6769C16.4569 14.6831 15.4644 13.6908 15.4644 12.471C15.4644 11.2511 16.4569 10.2589 17.6769 10.2589H20.2542C20.6191 10.2589 20.9149 10.5544 20.9149 10.9195C20.9149 11.2846 20.6191 11.5801 20.2542 11.5801H17.6769C17.1852 11.5801 16.7856 11.9801 16.7856 12.471C16.7856 12.9618 17.1852 13.3618 17.6769 13.3618H18.7024C19.9224 13.3618 20.9149 14.3547 20.9149 15.5747C20.9149 16.7947 19.9224 17.787 18.7024 17.787Z" fill="#F78721"/>
<path d="M18.1889 19.0773C17.8241 19.0773 17.5283 18.7818 17.5283 18.4166V17.1264C17.5283 16.7613 17.8241 16.4658 18.1889 16.4658C18.5538 16.4658 18.8496 16.7613 18.8496 17.1264V18.4166C18.8494 18.7818 18.5537 19.0773 18.1889 19.0773Z" fill="#F78721"/>
<path d="M18.1889 11.5801C17.8241 11.5801 17.5283 11.2846 17.5283 10.9195V9.62925C17.5283 9.26413 17.8241 8.96863 18.1889 8.96863C18.5538 8.96863 18.8496 9.26413 18.8496 9.62925V10.9195C18.8494 11.2846 18.5537 11.5801 18.1889 11.5801Z" fill="#F78721"/>
<path d="M14.8653 42.7586V47.2271C14.8653 47.7022 14.4802 48.0874 14.0051 48.0874H10.8217C10.3466 48.0874 9.96143 47.7022 9.96143 47.2271V42.7586C9.96143 42.2835 10.3466 41.8984 10.8217 41.8984H14.0052C14.4802 41.8984 14.8653 42.2835 14.8653 42.7586Z" fill="#F14F4A"/>
<path opacity="0.12" d="M14.8648 42.7572V47.2271C14.8648 47.7031 14.4806 48.0873 14.0046 48.0873H10.8217C10.3457 48.0873 9.96143 47.7031 9.96143 47.2271V47.1468C12.1579 47.1067 13.9271 45.3116 13.9271 43.1037V41.897H14.0044C14.4806 41.897 14.8648 42.284 14.8648 42.7572Z" fill="black"/>
<path d="M21.6804 35.3953V47.2271C21.6804 47.7022 21.2952 48.0873 20.8201 48.0873H17.6366C17.1615 48.0873 16.7764 47.7022 16.7764 47.2271V35.3953C16.7764 34.9202 17.1615 34.5351 17.6366 34.5351H20.8201C21.2952 34.5351 21.6804 34.9202 21.6804 35.3953Z" fill="#F14F4A"/>
<path opacity="0.12" d="M21.6797 35.3939V47.2271C21.6797 47.7031 21.2955 48.0874 20.8195 48.0874H17.6366C17.1606 48.0874 16.7764 47.7031 16.7764 47.2271V47.1469C18.9729 47.1068 20.742 45.3116 20.742 43.1038V34.5338H20.8194C21.2956 34.5338 21.6797 34.9208 21.6797 35.3939Z" fill="black"/>
<path d="M28.4953 38.6764V47.2271C28.4953 47.7022 28.1102 48.0874 27.6351 48.0874H24.4516C23.9764 48.0874 23.5913 47.7022 23.5913 47.2271V38.6764C23.5913 38.2012 23.9764 37.8161 24.4516 37.8161H27.6351C28.1102 37.8162 28.4953 38.2014 28.4953 38.6764Z" fill="#F14F4A"/>
<path opacity="0.12" d="M28.4947 38.675V47.2271C28.4947 47.7031 28.1104 48.0874 27.6344 48.0874H24.4516C23.9756 48.0874 23.5913 47.7031 23.5913 47.2271V47.1469C25.7878 47.1068 27.5569 45.3116 27.5569 43.1038V37.8148H27.6343C28.1104 37.8148 28.4947 38.2019 28.4947 38.675Z" fill="black"/>
<path d="M35.3102 31.3131V47.2271C35.3102 47.7023 34.9251 48.0874 34.45 48.0874H31.2665C30.7914 48.0874 30.4062 47.7023 30.4062 47.2271V31.3131C30.4062 30.838 30.7914 30.4529 31.2665 30.4529H34.45C34.9251 30.4529 35.3102 30.838 35.3102 31.3131Z" fill="#F14F4A"/>
<path opacity="0.12" d="M35.3096 31.3117V47.2271C35.3096 47.7031 34.9254 48.0874 34.4494 48.0874H31.2665C30.7905 48.0874 30.4062 47.7031 30.4062 47.2271V47.1469C32.6028 47.1067 34.3719 45.3116 34.3719 43.1037V30.4515H34.4492C34.9254 30.4515 35.3096 30.8385 35.3096 31.3117Z" fill="black"/>
<path d="M21.6805 26.6803H9.96189C9.59702 26.6803 9.30127 26.3848 9.30127 26.0196C9.30127 25.6545 9.59702 25.359 9.96189 25.359H21.6805C22.0454 25.359 22.3411 25.6545 22.3411 26.0196C22.3411 26.3848 22.0453 26.6803 21.6805 26.6803Z" fill="#474747"/>
<path d="M17.8674 31.1136H9.96189C9.59702 31.1136 9.30127 30.8181 9.30127 30.453C9.30127 30.0879 9.59702 29.7924 9.96189 29.7924H17.8674C18.2323 29.7924 18.528 30.0879 18.528 30.453C18.528 30.8181 18.2323 31.1136 17.8674 31.1136Z" fill="#474747"/>
</g>
<defs>
<clipPath id="clip0_121_1301">
<rect width="64" height="64" fill="white"/>
</clipPath>
</defs>
</svg>
