<svg width="66" height="64" viewBox="0 0 66 64" fill="none" xmlns="http://www.w3.org/2000/svg">
<g clip-path="url(#clip0_119_6360)">
<path d="M38.4045 34.7402L41.4114 27.9207L37.11 25.4252C36.9862 25.343 36.8512 25.2847 36.7059 25.252L32.0028 23.5724V23.5729C31.6907 23.4144 31.293 23.4403 30.8595 23.6908C29.8575 24.2691 29.0459 25.8205 29.0459 27.1561C29.0459 27.9369 29.3243 28.4682 29.7553 28.6615L29.7543 28.6639L33.6002 31.908C33.655 31.9628 33.7127 32.0117 33.7739 32.0543C33.8336 32.0969 33.8962 32.1331 33.9617 32.1634L38.4045 34.7402Z" fill="#CECECE"/>
<path d="M42.3064 29.9144C42.3064 31.703 41.2193 33.7803 39.8783 34.5543C38.5373 35.3288 37.4497 34.5068 37.4497 32.7187C37.4497 30.9305 38.5373 28.8532 39.8783 28.0788C41.2193 27.3043 42.3064 28.1262 42.3064 29.9144Z" fill="white"/>
<path d="M41.4118 30.4315C41.4118 31.5607 40.7254 32.8723 39.8785 33.3611C39.0316 33.8503 38.3452 33.3312 38.3452 32.2021C38.3452 31.0729 39.0316 29.7613 39.8785 29.272C40.7254 28.7833 41.4118 29.3024 41.4118 30.4315Z" fill="#2E373D"/>
<path d="M23.9464 17.158L29.2492 11.0685C30.1074 10.0822 29.8579 8.55871 28.7297 7.89824L27.4846 7.16879L17.1353 13.1443L23.9464 17.158Z" fill="#CECECE"/>
<path d="M50.5308 39.2246L59.8757 15.6052L54.6795 12.6057L40.001 33.1453L50.5308 39.2246Z" fill="#CECECE"/>
<path d="M33.456 43.2965L42.3063 48.4134C48.7853 52.1536 55.685 55.112 62.8611 57.226C64.1527 57.6062 65.3587 56.4183 64.9981 55.1218C63.5054 49.7549 60.6013 44.886 56.5871 41.024C55.8655 40.3293 55.0622 39.725 54.1948 39.2246L21.4164 20.2926C19.7779 19.3469 17.73 20.5294 17.73 22.4207C17.73 24.8405 18.3601 27.2182 19.5583 29.3204C22.8689 35.1296 27.6654 39.953 33.456 43.2965Z" fill="white"/>
<path d="M64.9977 55.1213C64.5613 53.5519 63.9909 52.0323 63.3206 50.5611C62.7629 50.6115 62.1763 50.7554 61.6411 51.069C59.8769 52.1013 58.8304 54.0675 58.8304 54.0675L40.2903 43.363C33.5589 39.4765 28.6827 33.0357 26.7688 25.5024C26.7688 25.5024 27.2208 24.9198 27.8025 23.9809L21.4165 20.2926C19.802 19.3601 17.7384 20.4956 17.7306 22.3601C17.7198 24.8004 18.3505 27.2006 19.5584 29.3204C22.8691 35.1296 27.6655 39.953 33.4561 43.2965L42.3069 48.4134C48.7815 52.1512 55.6768 55.1081 62.848 57.2221C64.1372 57.6018 65.3578 56.4163 64.9977 55.1213Z" fill="#E33400"/>
<path d="M28.4107 24.3327L25.6607 11.9741L16.9332 6.93543C16.6015 6.74414 16.237 6.81997 15.9924 7.03474L15.9914 7.03425L14.4043 8.1414C15.1949 8.2368 17.1895 11.2784 19.4664 14.9071L20.6563 19.8552L25.0227 22.3762C26.0834 24.2544 26.7688 25.5025 26.7688 25.5025L28.4107 24.3327Z" fill="#872E02"/>
<path d="M19.0145 21.0254L17.1353 13.1443C15.581 12.2471 14.4758 10.7373 14.0898 8.98435C13.9382 8.29403 14.6789 7.75196 15.2909 8.10519L24.0184 13.1443L26.7689 25.5024L19.0145 21.0254Z" fill="#E33400"/>
<path d="M59.876 15.6052L54.0952 7.6908L54.6799 12.6057L59.876 15.6052Z" fill="white"/>
<path d="M23.9461 17.158L12.1805 20.5382C10.9466 20.8928 9.62177 20.7363 8.50435 20.1037L6.77539 19.1252L17.135 13.1443L23.9461 17.158Z" fill="#EDEDED"/>
<path d="M25.1438 42.4291L28.1506 35.6096L23.8492 33.1135C23.726 33.0318 23.5904 32.9731 23.4451 32.9408L18.7426 31.2608L18.7421 31.2612C18.4305 31.1032 18.0327 31.1292 17.5988 31.3796C16.5973 31.9579 15.7852 33.5093 15.7852 34.8444C15.7852 35.6252 16.064 36.157 16.4945 36.3503L16.4941 36.3522L20.3395 39.5969C20.3943 39.6517 20.452 39.7001 20.5131 39.7431C20.5728 39.7852 20.6359 39.8219 20.701 39.8522L25.1438 42.4291Z" fill="#CECECE"/>
<path d="M29.0461 37.6032C29.0461 39.3914 27.9585 41.4687 26.6175 42.2431C25.2765 43.0176 24.1895 42.1957 24.1895 40.4075C24.1895 38.6189 25.2765 36.5416 26.6175 35.7676C27.9585 34.9931 29.0461 35.8151 29.0461 37.6032Z" fill="white"/>
<path d="M28.151 38.1199C28.151 39.249 27.4646 40.5607 26.6177 41.0499C25.7709 41.5386 25.0845 41.0196 25.0845 39.8904C25.0845 38.7613 25.7709 37.4496 26.6177 36.9609C27.4646 36.4716 28.151 36.9907 28.151 38.1199Z" fill="#2E373D"/>
<path d="M59.9907 44.9193C59.8254 45.4203 59.4981 45.8767 58.9795 46.1761C56.8166 47.4247 54.1532 47.4281 51.9868 46.1854C51.9868 49.4946 55.3978 51.7916 58.4134 50.4281C58.6116 50.3386 58.8063 50.2397 58.9971 50.1306L60.8464 49.0783C61.3263 48.8053 61.7148 48.4139 61.9834 47.9525C61.3802 46.9031 60.7128 45.8924 59.9907 44.9193Z" fill="#304E75"/>
<path d="M49.4035 48.5191L49.2616 48.4369C48.7362 48.134 48.3105 47.3204 48.3105 46.6203V45.4618C48.3105 44.7612 48.7367 44.4398 49.2616 44.7426L49.4035 44.8248C49.9285 45.1282 50.3541 45.9413 50.3541 46.6414V47.8004C50.3541 48.5005 49.9285 48.8224 49.4035 48.5191Z" fill="#243B58"/>
<path d="M45.1872 46.022L45.0453 45.9403C44.5204 45.637 44.0947 44.8234 44.0947 44.1233V42.9648C44.0947 42.2647 44.5204 41.9427 45.0453 42.2456L45.1872 42.3278C45.7121 42.6311 46.1378 43.4442 46.1378 44.1443V45.3033C46.1378 46.0034 45.7121 46.3253 45.1872 46.022Z" fill="#243B58"/>
<path d="M40.9709 43.568L40.829 43.4863C40.3041 43.183 39.8784 42.3699 39.8784 41.6698V40.5108C39.8784 39.8107 40.3041 39.4887 40.829 39.7921L40.9709 39.8738C41.4963 40.1771 41.9215 40.9907 41.9215 41.6908V42.8493C41.9215 43.5494 41.4963 43.8713 40.9709 43.568Z" fill="#243B58"/>
<path d="M40.0011 45.3038L7.82106 56.5812L0.9375 52.6071L20.9717 44.1321L29.4713 39.2246L40.0011 45.3038Z" fill="#EDEDED"/>
<path d="M7.82106 56.5812L0.9375 48.6331V52.6071L7.82106 56.5812Z" fill="#CECECE"/>
</g>
<defs>
<clipPath id="clip0_119_6360">
<rect width="64.1252" height="64" fill="white" transform="translate(0.9375)"/>
</clipPath>
</defs>
</svg>
