<svg width="48" height="48" viewBox="0 0 48 48" fill="none" xmlns="http://www.w3.org/2000/svg">
<path d="M44.3668 13.23H36.6902V8.76159C36.6902 8.5545 36.5223 8.38659 36.3152 8.38659H31.9737V5.52019H34.4366C34.6437 5.52019 34.8116 5.35228 34.8116 5.14519V1.59375C34.8116 1.38666 34.6437 1.21875 34.4366 1.21875H13.5629C13.3558 1.21875 13.1879 1.38666 13.1879 1.59375V5.14519C13.1879 5.35228 13.3558 5.52019 13.5629 5.52019H16.0258V8.38659H11.6844C11.4773 8.38659 11.3094 8.5545 11.3094 8.76159V13.23H3.63281C3.42572 13.23 3.25781 13.3979 3.25781 13.605V42.0413C3.25781 42.2483 3.42572 42.4163 3.63281 42.4163H6.87141V43.9332C6.87141 44.8971 7.65675 45.6813 8.62209 45.6813H16.2637C16.576 46.3308 17.2387 46.7813 18.0063 46.7813H29.996C30.7626 46.7813 31.4242 46.3308 31.7362 45.6813H39.3802C40.3455 45.6813 41.1308 44.8972 41.1308 43.9332V42.4163H44.3668C44.5739 42.4163 44.7418 42.2483 44.7418 42.0413V13.605C44.7418 13.3979 44.5739 13.23 44.3668 13.23Z" fill="#8AC9FE"/>
<path d="M27.7774 36.7174H20.223C17.9342 36.7174 16.0723 38.4582 16.0723 40.5979V44.8468C16.0723 45.9134 16.9401 46.7813 18.0068 46.7813H29.9965C31.0617 46.7813 31.9283 45.9134 31.9283 44.8468V40.5979C31.9283 38.4582 30.0661 36.7174 27.7774 36.7174Z" fill="#ECEFF1"/>
<path d="M16.072 44.8467V40.5979C16.072 38.9653 17.1565 37.5661 18.6868 36.9939C18.2258 36.8108 17.7396 36.7173 17.2389 36.7173H10.5765C8.53358 36.7173 6.87158 38.2726 6.87158 40.1843V43.933C6.87158 44.8969 7.65693 45.6811 8.62227 45.6811H16.2638C16.1421 45.4281 16.0719 45.1457 16.0719 44.8466L16.072 44.8467Z" fill="#6CF5C2"/>
<path d="M37.4233 36.7174H30.7609C30.2601 36.7174 29.774 36.811 29.313 36.9941C30.8434 37.5662 31.9278 38.9654 31.9278 40.598V44.8468C31.9278 45.1459 31.8576 45.4282 31.7361 45.6813H39.3801C40.3455 45.6813 41.1308 44.8972 41.1308 43.9333V40.1845C41.1308 38.2727 39.4676 36.7175 37.4233 36.7175V36.7174Z" fill="#6CF5C2"/>
<path d="M27.7773 36.7174H26.4648C28.7537 36.7174 30.6156 38.4582 30.6156 40.5979V44.8468C30.6156 45.9134 29.749 46.7813 28.6838 46.7813H29.9963C31.0615 46.7813 31.9281 45.9134 31.9281 44.8468V40.5979C31.9281 38.4582 30.0661 36.7174 27.7773 36.7174Z" fill="#D1D1D6"/>
<path d="M18.6867 36.9941C18.4785 36.9115 18.2652 36.8481 18.0477 36.8022C16.1715 37.1744 14.7593 38.7346 14.7593 40.598V44.8468C14.7593 45.1459 14.8295 45.4282 14.9512 45.6813H16.2637C16.142 45.4283 16.0718 45.1459 16.0718 44.8468V40.598C16.0718 38.9654 17.1563 37.5662 18.6866 36.9941H18.6867Z" fill="#00E499"/>
<path d="M37.4233 36.7174H36.1108C38.1552 36.7174 39.8184 38.2727 39.8184 40.1844V43.9332C39.8184 44.897 39.033 45.6812 38.0677 45.6812H39.3802C40.3455 45.6812 41.1309 44.8971 41.1309 43.9332V40.1844C41.1309 38.2726 39.4677 36.7174 37.4233 36.7174Z" fill="#00E499"/>
<path d="M6.8715 40.1844C6.8715 38.2726 8.5335 36.7174 10.5764 36.7174H11.3095V33.9286C10.7299 33.0219 10.4825 31.8743 10.4825 30.9923C10.4825 30.1418 10.7947 29.3633 11.3095 28.7635V13.2301H3.63281C3.42572 13.2301 3.25781 13.398 3.25781 13.6051V42.0414C3.25781 42.2484 3.42572 42.4164 3.63281 42.4164H6.87141V40.1844L6.8715 40.1844Z" fill="#60B7FF"/>
<path d="M44.3671 13.23H36.6904V28.7603C37.2069 29.3604 37.5202 30.1401 37.5202 30.9921C37.5202 31.8755 37.2721 33.0253 36.6904 33.9327V36.7174H37.4236C39.4679 36.7174 41.1311 38.2727 41.1311 40.1843V42.4162H44.3671C44.5741 42.4162 44.7421 42.2483 44.7421 42.0412V13.605C44.7421 13.3979 44.5741 13.23 44.3671 13.23Z" fill="#60B7FF"/>
<path d="M26.1841 44.8596L25.116 38.8447C25.2767 38.7275 25.4115 38.5792 25.508 38.411C25.6822 38.1062 25.6753 37.44 25.4194 37.1263C25.2084 36.8665 24.8728 36.7174 24.4986 36.7174H23.5013C23.1258 36.7174 22.7996 36.8617 22.5788 37.1284C22.3265 37.4436 22.3216 38.1082 22.4949 38.4115C22.5916 38.5802 22.7264 38.7285 22.8865 38.8453L21.8159 44.8594C21.792 44.9934 21.8426 45.1298 21.948 45.2158L23.7644 46.6969C23.8334 46.7532 23.9174 46.7813 24.0014 46.7813C24.0854 46.7813 24.1695 46.7531 24.2385 46.6967L26.0521 45.2156C26.1574 45.1296 26.208 44.9934 26.1841 44.8596Z" fill="#FE646F"/>
<path d="M34.4367 1.21875H13.563C13.3559 1.21875 13.188 1.38664 13.188 1.59375V5.14519C13.188 5.35229 13.3559 5.52019 13.563 5.52019H34.4367C34.6438 5.52019 34.8117 5.35229 34.8117 5.14519V1.59375C34.8117 1.38664 34.6438 1.21875 34.4367 1.21875Z" fill="#8AC9FE"/>
<path d="M17.4756 17.5781H18.9756V19.9944H17.4756V17.5781Z" fill="#C4E2FF"/>
<path d="M17.4756 22.1134H18.9756V24.5271H17.4756V22.1134Z" fill="#C4E2FF"/>
<path d="M23.251 22.1134H24.751V24.5271H23.251V22.1134Z" fill="#C4E2FF"/>
<path d="M23.251 17.5781H24.751V19.9944H23.251V17.5781Z" fill="#C4E2FF"/>
<path d="M17.4756 13.0428H18.9756V15.4592H17.4756V13.0428Z" fill="#C4E2FF"/>
<path d="M29.0244 22.1134H30.5244V24.5271H29.0244V22.1134Z" fill="#C4E2FF"/>
<path d="M29.0244 17.5781H30.5244V19.9944H29.0244V17.5781Z" fill="#C4E2FF"/>
<path d="M29.0244 13.0428H30.5244V15.4592H29.0244V13.0428Z" fill="#C4E2FF"/>
<path d="M23.251 13.0428H24.751V15.4592H23.251V13.0428Z" fill="#C4E2FF"/>
<path d="M6.53369 28.884H8.03369V31.2976H6.53369V28.884Z" fill="#C4E2FF"/>
<path d="M6.53369 24.3486H8.03369V26.7649H6.53369V24.3486Z" fill="#C4E2FF"/>
<path d="M6.53369 33.4165H8.03369V35.8328H6.53369V33.4165Z" fill="#C4E2FF"/>
<path d="M6.53369 19.8132H8.03369V22.2295H6.53369V19.8132Z" fill="#C4E2FF"/>
<path d="M39.9663 28.884H41.4663V31.2976H39.9663V28.884Z" fill="#C4E2FF"/>
<path d="M39.9663 24.3486H41.4663V26.7649H39.9663V24.3486Z" fill="#C4E2FF"/>
<path d="M39.9663 33.4165H41.4663V35.8328H39.9663V33.4165Z" fill="#C4E2FF"/>
<path d="M39.9663 19.8132H41.4663V22.2295H39.9663V19.8132Z" fill="#C4E2FF"/>
<path d="M13.9089 27.5657C12.0195 27.5657 10.4824 29.1028 10.4824 30.9921C10.4824 32.7056 11.4127 35.4241 13.9089 35.4241C16.1344 35.4241 17.3354 33.1407 17.3354 30.9921C17.3354 29.1028 15.7982 27.5657 13.9089 27.5657Z" fill="#F6DCCD"/>
<path d="M34.0935 27.5657C32.2041 27.5657 30.667 29.1028 30.667 30.9921C30.667 33.1406 31.8679 35.4241 34.0935 35.4241C36.5896 35.4241 37.5199 32.7056 37.5199 30.9921C37.5199 29.1028 35.9828 27.5657 34.0935 27.5657Z" fill="#F6DCCD"/>
<path d="M24.0013 26.3468C21.8079 26.3468 20.0234 28.1312 20.0234 30.3246C20.0234 32.3203 21.1034 35.4863 24.0013 35.4863C26.585 35.4863 27.9791 32.8269 27.9791 30.3246C27.9791 28.1312 26.1946 26.3468 24.0013 26.3468Z" fill="#F6DCCD"/>
<path d="M13.909 27.5657C13.668 27.5657 13.4329 27.591 13.2059 27.6385C14.759 27.9637 15.9292 29.3437 15.9292 30.9921C15.9292 32.9045 14.9771 34.9221 13.1987 35.343C13.4202 35.3949 13.6561 35.4241 13.9091 35.4241C16.1346 35.4241 17.3355 33.1407 17.3355 30.9921C17.3355 29.1028 15.7984 27.5657 13.9091 27.5657H13.909Z" fill="#F1CBBC"/>
<path d="M34.0938 27.5657C33.8528 27.5657 33.6177 27.591 33.3906 27.6385C34.9438 27.9637 36.114 29.3437 36.114 30.9921C36.114 32.5321 35.3618 34.8823 33.3978 35.343C33.6175 35.395 33.8491 35.4241 34.0938 35.4241C36.5899 35.4241 37.5202 32.7056 37.5202 30.9921C37.5202 29.1028 35.9831 27.5657 34.0938 27.5657Z" fill="#F1CBBC"/>
<path d="M24.0013 26.3468C23.7285 26.3468 23.4619 26.3745 23.2044 26.4271C25.0173 26.7972 26.3853 28.4041 26.3853 30.3246C26.3853 32.559 25.2729 34.9171 23.1953 35.3967C23.4469 35.4543 23.7149 35.4863 24.0013 35.4863C26.585 35.4863 27.9791 32.8269 27.9791 30.3246C27.9791 28.1312 26.1947 26.3468 24.0013 26.3468Z" fill="#F1CBBC"/>
<path d="M16.0259 5.52014H31.9737V8.38655H16.0259V5.52014Z" fill="#60B7FF"/>
</svg>
