<svg width="65" height="64" viewBox="0 0 65 64" fill="none" xmlns="http://www.w3.org/2000/svg">
<g clip-path="url(#clip0_121_1144)">
<path d="M20.9795 38.8844C23.2908 37.3962 23.0323 30.9002 23.0323 29.8666H41.6355C41.6355 30.9 41.3489 37.3962 43.66 38.8844L32.3339 49.5034L20.9795 38.8844Z" fill="#FFD7A3"/>
<path d="M39.5684 41.2353L43.66 38.8844C41.3487 37.3964 41.6355 30.9002 41.6355 29.8666H23.0322C24.3669 33.704 33.195 40.2879 39.5684 41.2353Z" fill="#FDC88E"/>
<path d="M51.3302 39.1102L42.6687 36.9456V35.0639C42.6687 34.298 41.8426 33.7444 41.1839 34.1352C39.5682 35.0939 37.2428 36.9995 32.3337 37.1286C27.4244 36.9993 25.0991 35.0939 23.4834 34.1352C22.8247 33.7442 21.9986 34.298 21.9986 35.0639V36.9456L13.3371 39.1102C9.00601 40.496 5.4624 45.3507 5.4624 49.8983V60.8995C5.4624 62.6119 6.85051 64 8.56294 64H32.3337H56.1044C57.8168 64 59.2049 62.6119 59.2049 60.8995V49.8983C59.2049 45.3507 55.6613 40.496 51.3302 39.1102Z" fill="#5A79C6"/>
<path d="M46.7888 16.3103C46.7888 24.5868 42.0231 34.9136 32.3197 34.9136C22.6163 34.9136 17.8506 24.5868 17.8506 16.3103C17.8506 8.03384 24.3287 4.94162 32.3197 4.94162C40.3106 4.94162 46.7888 8.03384 46.7888 16.3103Z" fill="#FFE1B2"/>
<path d="M18.3474 17.3438C16.7981 16.9562 15.7832 17.7843 15.7832 19.4109C15.7832 21.564 17.8666 26.8392 20.0568 23.5449C22.247 20.2505 18.3474 17.3438 18.3474 17.3438Z" fill="#FFE1B2"/>
<path d="M46.0571 17.3438C47.7482 16.9562 48.8561 17.7843 48.8561 19.4109C48.8561 21.564 46.582 26.8392 44.1912 23.5449C41.8004 20.2505 46.0571 17.3438 46.0571 17.3438Z" fill="#FFE1B2"/>
<path d="M20.9509 13.016C20.5202 14.1356 19.9174 19.217 19.9174 19.217L17.8503 18.1836L17.269 11.3365L20.9509 13.016Z" fill="#7E5449"/>
<path d="M43.6885 13.016C44.1191 14.1356 44.7219 19.217 44.7219 19.217L46.789 18.1836L47.3703 11.3365L43.6885 13.016Z" fill="#7E5449"/>
<path d="M47.3701 13.8292C47.3701 10.5498 47.3701 7.27018 47.3701 3.99059C38.0418 -1.33032 26.5974 -1.33032 17.269 3.99059C17.269 7.27018 17.269 10.5498 17.269 13.8292C27.0429 11.8177 37.5964 11.8177 47.3701 13.8292Z" fill="#5A79C6"/>
<path d="M17.269 9.79841C17.269 10.5014 17.269 11.2044 17.269 11.9073C27.0023 9.70574 37.6369 9.70574 47.3701 11.9073C47.3701 11.2043 47.3701 10.5013 47.3701 9.79841C37.6176 7.66583 27.0214 7.66583 17.269 9.79841Z" fill="#FFD267"/>
<path d="M42.0964 39.2755C42.4488 39.1018 42.6687 38.7342 42.6687 38.3413V36.9456V35.0639C42.6687 34.2679 41.8019 33.7633 41.1198 34.1735C39.5066 35.1438 37.1782 37.0012 32.3336 37.1286C27.4891 37.0011 25.1606 35.1437 23.5475 34.1735C22.8654 33.7633 21.9985 34.2677 21.9985 35.0639V36.9456V38.3413C21.9985 38.7342 22.2184 39.1018 22.5709 39.2755C28.7248 42.3085 35.9426 42.3085 42.0964 39.2755Z" fill="#4A69BC"/>
<path d="M35.6316 39.8732C25.463 41.8131 20.3076 44.3171 20.3076 47.3157V64H21.651V47.3157C21.651 46.5164 22.6774 43.7126 35.8829 41.1933L35.6316 39.8732Z" fill="#4A69BC"/>
<path d="M24.5608 50.2496C25.1316 50.2496 25.5943 49.7869 25.5943 49.2162C25.5943 48.6454 25.1316 48.1827 24.5608 48.1827C23.99 48.1827 23.5273 48.6454 23.5273 49.2162C23.5273 49.7869 23.99 50.2496 24.5608 50.2496Z" fill="#FFD267"/>
<path d="M24.5608 55.4172C25.1316 55.4172 25.5943 54.9546 25.5943 54.3838C25.5943 53.813 25.1316 53.3503 24.5608 53.3503C23.99 53.3503 23.5273 53.813 23.5273 54.3838C23.5273 54.9546 23.99 55.4172 24.5608 55.4172Z" fill="#FFD267"/>
<path d="M24.5608 60.5847C25.1316 60.5847 25.5943 60.122 25.5943 59.5513C25.5943 58.9805 25.1316 58.5178 24.5608 58.5178C23.99 58.5178 23.5273 58.9805 23.5273 59.5513C23.5273 60.122 23.99 60.5847 24.5608 60.5847Z" fill="#FFD267"/>
<path d="M47.9043 51.7942C47.9043 52.3626 47.4392 52.8276 46.8708 52.8276H36.9163C36.3479 52.8276 35.8828 52.3626 35.8828 51.7942V50.7607C35.8828 50.1923 36.3479 49.7272 36.9163 49.7272H46.8708C47.4392 49.7272 47.9043 50.1923 47.9043 50.7607V51.7942Z" fill="#FFD267"/>
<path d="M13.7306 39.0119L13.3371 39.1102C9.00601 40.496 5.4624 45.3507 5.4624 49.8983V60.8995C5.4624 62.6119 6.85051 64 8.56294 64H13.7306V39.0119Z" fill="#4A69BC"/>
<path d="M50.937 39.0119L51.3305 39.1102C55.6616 40.496 59.2052 45.3507 59.2052 49.8983V60.8995C59.2052 62.6119 57.8171 64 56.1046 64H50.937V39.0119Z" fill="#4A69BC"/>
</g>
<defs>
<clipPath id="clip0_121_1144">
<rect width="64" height="64" fill="white" transform="translate(0.333496)"/>
</clipPath>
</defs>
</svg>
