<svg width="40" height="40" viewBox="0 0 40 40" fill="none" xmlns="http://www.w3.org/2000/svg">
<path d="M25.8739 26.8723L28.5735 27.7544L33.4498 29.3266C34.2998 29.6078 34.875 30.3875 34.875 31.2758V34.0687V38.8236H31.5837H8.42275H5.125V34.0687V31.2758C5.125 30.3875 5.70019 29.6078 6.5438 29.3266L11.4265 27.7544L14.1838 26.9329" fill="#FFCC33"/>
<path d="M24.0852 23.1843V25.3381L20.0013 28.7189L15.9175 25.3381V23.1843C17.0551 24.0535 18.4675 24.5584 20.0013 24.5584C21.5351 24.5584 22.954 24.0471 24.0852 23.1843Z" fill="#FAC2AA"/>
<path d="M24.0871 25.3386L25.8223 26.935L23.6892 30.7596C23.594 30.9304 23.3732 30.9833 23.2109 30.8743L20.0029 28.7203L24.0871 25.3386Z" fill="#FCB910"/>
<path d="M15.9196 25.3396L14.1841 26.933L16.5803 30.7721C16.683 30.9367 16.9039 30.9795 17.0608 30.8652L20.0035 28.7203L15.9196 25.3396Z" fill="#FCB910"/>
<path d="M21.0168 31.4278L22.2393 30.2072L20.0001 28.7195L17.8486 30.2908L18.9856 31.4278H21.0168Z" fill="#F91C1C"/>
<path d="M22.4122 38.8236L21.0196 31.4292H18.9872L17.5908 38.8236H22.4122Z" fill="#FF4848"/>
<path d="M27.7015 11.0664V12.3427H27.1638C26.9333 12.3427 26.7502 12.5317 26.7502 12.7563V12.839H26.5906C26.5848 12.8272 26.5848 12.8153 26.5848 12.8094C26.5729 12.7385 26.5552 12.6676 26.5375 12.6026C26.3602 11.799 26.0884 11.2378 25.8048 10.8478C25.7871 10.8123 25.7635 10.7828 25.7339 10.7533C25.7044 10.7119 25.6748 10.6705 25.6394 10.6351C25.5803 10.5583 25.5153 10.4933 25.4503 10.4401C25.3912 10.3751 25.3322 10.3278 25.279 10.2865C24.9245 10.0088 24.6467 9.96149 24.6467 9.96149C21.8697 13.1521 16.7884 12.6794 16.7884 12.6794C18.5432 12.0059 17.9582 10.3101 17.9582 10.3101C16.9065 11.4209 15.2403 11.1905 15.2403 11.1905L14.2004 12.8212L13.2491 14.3161V12.7563C13.2491 12.5317 13.066 12.3427 12.8355 12.3427H12.2979V11.0487C12.2979 8.92749 13.1664 7.00129 14.5608 5.60688C15.9552 4.21838 17.8814 3.35571 20.0085 3.35571C24.2627 3.36163 27.7074 6.81812 27.7015 11.0664Z" fill="#4C4947"/>
<path d="M24.6455 9.96045C24.6455 9.96045 26.593 10.3054 26.75 14.3083H27.7018V11.8749" fill="#4C4947"/>
<path d="M24.6871 7.8985C24.6107 7.8985 24.5343 7.86934 24.476 7.81102C23.586 6.91931 22.4674 6.33611 21.241 6.12499C21.0783 6.097 20.9692 5.94245 20.9972 5.77974C21.0252 5.61703 21.1821 5.50913 21.3425 5.53596C22.6914 5.76865 23.9208 6.40959 24.8982 7.38878C25.0149 7.50543 25.0149 7.69496 24.8982 7.81102C24.8399 7.86934 24.7635 7.8985 24.6871 7.8985ZM18.9461 6.16174C18.8067 6.16174 18.6825 6.06376 18.6539 5.92146C18.6212 5.75991 18.7262 5.60245 18.8884 5.57037C19.068 5.53421 19.2499 5.50505 19.4336 5.48348C19.5946 5.46715 19.7457 5.58204 19.7649 5.74592C19.7836 5.9098 19.6663 6.05793 19.5025 6.07718C19.3351 6.09643 19.1695 6.12325 19.005 6.15591C18.9857 6.15999 18.9659 6.16174 18.9461 6.16174Z" fill="white"/>
<path d="M15.2393 11.1885C15.2393 11.1885 16.9055 11.4223 17.9578 10.3115C17.9578 10.3115 18.5424 12.0069 16.7885 12.6792C16.7885 12.6792 21.8723 13.1522 24.6455 9.96045C24.6455 9.96045 26.593 10.3054 26.7499 14.3083V17.8091C26.7499 21.5381 23.7289 24.5591 20 24.5591C18.1355 24.5591 16.4494 23.8079 15.228 22.5811C14.0066 21.3652 13.25 19.6736 13.25 17.8091V14.3161L15.2393 11.1885Z" fill="#FCD5C1"/>
<path d="M26.2564 22.3921H21.8585C21.6113 22.3921 21.4106 22.1915 21.4106 21.9442C21.4106 21.6969 21.6113 21.4963 21.8585 21.4963H26.2564C27.0723 21.4963 27.7366 20.832 27.7366 20.0161V18.8153C27.7366 18.568 27.9372 18.3674 28.1845 18.3674C28.4318 18.3674 28.6324 18.568 28.6324 18.8153V20.0161C28.6324 21.326 27.5663 22.3921 26.2564 22.3921Z" fill="#666666"/>
<path d="M21.8583 21.9617C21.8583 22.5572 21.3755 23.0401 20.78 23.0401H20.2669C19.6713 23.0401 19.1885 22.5572 19.1885 21.9617C19.1885 21.3661 19.6713 20.8833 20.2669 20.8833H20.78C21.3755 20.8833 21.8583 21.3661 21.8583 21.9617Z" fill="#4C4947"/>
<path d="M29.2981 13.5368C29.0508 13.5368 28.8502 13.3362 28.8502 13.0889V10.9229C28.8502 6.04272 24.8798 2.0723 19.9995 2.0723C15.1193 2.0723 11.1492 6.04272 11.1492 10.9229V13.0889C11.1492 13.3362 10.9486 13.5368 10.7013 13.5368C10.454 13.5368 10.2534 13.3362 10.2534 13.0889V10.9229C10.2534 5.54875 14.6254 1.17651 19.9996 1.17651C25.3737 1.17651 29.746 5.54876 29.746 10.9229V13.0889C29.746 13.3362 29.5453 13.5368 29.2981 13.5368Z" fill="#666666"/>
<path d="M31.7872 34.114L29.3453 31.6721L26.9033 34.114H31.7872Z" fill="#E5E8F9"/>
<path d="M30.5704 14.0554V17.1049C30.5704 18.0494 29.8047 18.8151 28.8602 18.8151H27.1617C26.9343 18.8151 26.75 18.6308 26.75 18.4034V12.7569C26.75 12.5295 26.9343 12.3452 27.1617 12.3452H28.8602C29.8047 12.3452 30.5704 13.1109 30.5704 14.0554Z" fill="#FF4848"/>
<path d="M9.42969 14.0554V17.1049C9.42969 18.0494 10.1954 18.8151 11.1399 18.8151H12.8384C13.0657 18.8151 13.25 18.6308 13.25 18.4034V12.7569C13.25 12.5295 13.0657 12.3452 12.8384 12.3452H11.1399C10.1954 12.3452 9.42969 13.1109 9.42969 14.0554Z" fill="#FF4848"/>
<path d="M32.5018 34.5623H26.1881C25.9409 34.5623 25.7402 34.3617 25.7402 34.1144C25.7402 33.8671 25.9409 33.6665 26.1881 33.6665H32.5018C32.7491 33.6665 32.9497 33.8671 32.9497 34.1144C32.9497 34.3617 32.7491 34.5623 32.5018 34.5623Z" fill="white"/>
<path d="M15.945 16.2807C15.8295 16.2807 15.7146 16.2364 15.6271 16.1483C15.4528 15.9722 15.4539 15.6887 15.6295 15.5149C16.2704 14.8793 17.3102 14.8775 17.9477 15.5097C18.1238 15.6841 18.125 15.9675 17.9512 16.1431C17.7774 16.3192 17.4934 16.3203 17.3178 16.1466C17.0268 15.859 16.5527 15.8608 16.2605 16.1506C16.173 16.2375 16.0587 16.2807 15.945 16.2807Z" fill="#C97B4A"/>
<path d="M22.3668 16.2808C22.2514 16.2808 22.1359 16.2365 22.0484 16.1478C21.8746 15.9723 21.8758 15.6888 22.0519 15.5145C22.6917 14.8799 23.7321 14.8776 24.3701 15.5098C24.5463 15.6842 24.5474 15.9676 24.3736 16.1431C24.2004 16.3193 23.9158 16.3204 23.7403 16.1466C23.4493 15.8597 22.9751 15.862 22.6818 16.1513C22.5949 16.2376 22.4806 16.2808 22.3668 16.2808Z" fill="#C97B4A"/>
<path d="M19.9997 19.2462C19.7524 19.2462 19.5518 19.0456 19.5518 18.7984V17.8151C19.5518 17.5678 19.7524 17.3672 19.9997 17.3672C20.2469 17.3672 20.4476 17.5678 20.4476 17.8151V18.7984C20.4476 19.0456 20.2469 19.2462 19.9997 19.2462Z" fill="#C97B4A"/>
</svg>
