<svg width="65" height="64" viewBox="0 0 65 64" fill="none" xmlns="http://www.w3.org/2000/svg">
<g clip-path="url(#clip0_121_1612)">
<path fill-rule="evenodd" clip-rule="evenodd" d="M0.397761 23.6676L18.1531 3.1355C18.198 3.08479 18.2611 3.05375 18.3286 3.04908C18.3962 3.0444 18.4629 3.06646 18.5144 3.1105L44.8155 25.8533C44.8662 25.899 44.8972 25.9626 44.9018 26.0307C44.9065 26.0988 44.8845 26.1661 44.8405 26.2183L27.0856 46.75C27.0401 46.8009 26.9765 46.8321 26.9083 46.8369C26.8402 46.8417 26.7728 46.8197 26.7206 46.7756L0.423261 24.0325C0.397359 24.0104 0.37613 23.9833 0.36082 23.9529C0.345509 23.9225 0.336423 23.8893 0.334095 23.8553C0.331767 23.8213 0.336243 23.7872 0.347261 23.755C0.358279 23.7228 0.375617 23.6931 0.398261 23.6676H0.397761Z" fill="#006694"/>
<path fill-rule="evenodd" clip-rule="evenodd" d="M12.1799 14.0017L24.5751 8.34998L44.8155 25.8532C44.8662 25.8989 44.8971 25.9626 44.9018 26.0307C44.9065 26.0988 44.8845 26.166 44.8405 26.2182L27.0856 46.75C27.0401 46.8009 26.9765 46.8321 26.9083 46.8369C26.8401 46.8416 26.7728 46.8197 26.7206 46.7756L25.4619 45.6846L11.6545 15.4066C11.5384 15.1506 11.5284 14.859 11.6268 14.5957C11.7252 14.3324 11.9239 14.1188 12.1795 14.0017H12.1799Z" fill="#005C85"/>
<path fill-rule="evenodd" clip-rule="evenodd" d="M12.5119 14.7315L37.211 3.47111C37.273 3.44345 37.3434 3.44135 37.4069 3.46526C37.4705 3.48918 37.522 3.53719 37.5504 3.59886L51.9744 35.2346C51.989 35.2652 51.9973 35.2985 51.999 35.3324C52.0007 35.3662 51.9956 35.4001 51.984 35.432C51.9725 35.4639 51.9548 35.4932 51.9318 35.5182C51.9089 35.5432 51.8812 35.5634 51.8504 35.5776L27.1511 46.8375C27.0885 46.8648 27.0178 46.8668 26.9538 46.843C26.8898 46.8191 26.8375 46.7714 26.8081 46.7097L12.3841 15.075C12.3561 15.0125 12.3538 14.9415 12.3777 14.8773C12.4016 14.8132 12.4498 14.761 12.5119 14.732V14.7315Z" fill="#60B7FF"/>
<path fill-rule="evenodd" clip-rule="evenodd" d="M27.1734 10.8564H40.8609L51.9747 35.2346C51.9893 35.2652 51.9977 35.2984 51.9994 35.3323C52.001 35.3662 51.996 35.4001 51.9844 35.432C51.9729 35.4639 51.9551 35.4932 51.9322 35.5182C51.9092 35.5432 51.8815 35.5634 51.8507 35.5776L27.1515 46.8374C27.0889 46.8648 27.0182 46.8668 26.9542 46.8429C26.8902 46.8191 26.8379 46.7713 26.8085 46.7097L26.1152 45.1847V11.9182C26.1149 11.779 26.1421 11.6411 26.1951 11.5124C26.2481 11.3837 26.326 11.2667 26.4243 11.168C26.5225 11.0694 26.6393 10.9912 26.7678 10.9377C26.8963 10.8842 27.0342 10.8566 27.1734 10.8564Z" fill="#56A5E6"/>
<path fill-rule="evenodd" clip-rule="evenodd" d="M27.1734 11.6593H47.3881L54.5764 18.8476V46.6851C54.5761 46.7537 54.5487 46.8194 54.5002 46.8679C54.4517 46.9165 54.386 46.9439 54.3174 46.9442H27.1734C27.1396 46.944 27.1061 46.9371 27.075 46.9239C27.0439 46.9108 27.0156 46.8916 26.9919 46.8676C26.9682 46.8435 26.9495 46.815 26.9368 46.7837C26.9241 46.7524 26.9177 46.7188 26.918 46.6851V11.9183C26.9177 11.8845 26.9241 11.851 26.9368 11.8197C26.9495 11.7884 26.9682 11.7599 26.9919 11.7358C27.0157 11.7118 27.0439 11.6926 27.075 11.6795C27.1062 11.6664 27.1396 11.6595 27.1734 11.6593Z" fill="#EAF6FF"/>
<path fill-rule="evenodd" clip-rule="evenodd" d="M47.3877 11.6593V17.2343C47.3885 17.6617 47.5587 18.0714 47.8609 18.3736C48.1631 18.6758 48.5728 18.846 49.0002 18.8468H54.5752L47.3877 11.6593Z" fill="#BEC7CF"/>
<path fill-rule="evenodd" clip-rule="evenodd" d="M33.3908 36.1723H54.6018C55.677 36.1756 56.7071 36.6041 57.4673 37.3643C58.2275 38.1246 58.6561 39.1547 58.6593 40.2298V56.8942C58.6567 57.9695 58.2284 59 57.468 59.7604C56.7077 60.5208 55.6772 60.9492 54.6018 60.9518H16.9966C15.9214 60.9486 14.8913 60.52 14.131 59.7598C13.3708 58.9995 12.9422 57.9693 12.939 56.8942V32.1147C12.9413 31.2312 13.2936 30.3847 13.9187 29.7604C14.5437 29.136 15.3906 28.7847 16.2741 28.7833H23.3565C24.5315 28.7833 25.3306 29.5058 26.1697 30.3232L30.5776 34.6325C31.4168 35.4535 32.216 36.1723 33.3908 36.1723Z" fill="#FFBA57"/>
<path d="M31.3368 18.749C31.0996 18.7462 30.8731 18.6501 30.7063 18.4813C30.5396 18.3126 30.446 18.0849 30.446 17.8477C30.446 17.6105 30.5396 17.3828 30.7063 17.2141C30.8731 17.0454 31.0996 16.9492 31.3368 16.9464H43.254C43.4913 16.9492 43.7178 17.0454 43.8845 17.2141C44.0513 17.3828 44.1448 17.6105 44.1448 17.8477C44.1448 18.0849 44.0513 18.3126 43.8845 18.4813C43.7178 18.6501 43.4913 18.7462 43.254 18.749H31.3368ZM31.3368 31.899C31.0978 31.899 30.8685 31.8041 30.6995 31.6351C30.5305 31.4661 30.4355 31.2368 30.4355 30.9978C30.4355 30.7588 30.5305 30.5295 30.6995 30.3605C30.8685 30.1915 31.0978 30.0965 31.3368 30.0965H50.1577C50.3967 30.0965 50.6259 30.1915 50.795 30.3605C50.964 30.5295 51.0589 30.7588 51.0589 30.9978C51.0589 31.2368 50.964 31.4661 50.795 31.6351C50.6259 31.8041 50.3967 31.899 50.1577 31.899H31.3368ZM31.3368 27.5168C31.0996 27.514 30.8731 27.4178 30.7063 27.2491C30.5396 27.0804 30.446 26.8527 30.446 26.6155C30.446 26.3783 30.5396 26.1506 30.7063 25.9819C30.8731 25.8131 31.0996 25.717 31.3368 25.7142H50.1577C50.2769 25.7128 50.3953 25.735 50.5059 25.7797C50.6164 25.8244 50.7171 25.8905 50.8019 25.9744C50.8867 26.0582 50.9541 26.158 51 26.2681C51.046 26.3781 51.0697 26.4962 51.0697 26.6155C51.0697 26.7347 51.046 26.8528 51 26.9629C50.9541 27.0729 50.8867 27.1728 50.8019 27.2566C50.7171 27.3404 50.6164 27.4066 50.5059 27.4513C50.3953 27.4959 50.2769 27.5182 50.1577 27.5168H31.3368ZM31.3368 23.1344C31.2184 23.1344 31.1012 23.1111 30.9919 23.0658C30.8826 23.0205 30.7832 22.9541 30.6995 22.8704C30.6158 22.7868 30.5494 22.6874 30.5042 22.5781C30.4589 22.4687 30.4355 22.3515 30.4355 22.2332C30.4355 22.1148 30.4589 21.9976 30.5042 21.8883C30.5494 21.7789 30.6158 21.6796 30.6995 21.5959C30.7832 21.5122 30.8826 21.4458 30.9919 21.4005C31.1012 21.3552 31.2184 21.3319 31.3368 21.3319H50.1577C50.276 21.3319 50.3932 21.3552 50.5026 21.4005C50.6119 21.4458 50.7113 21.5122 50.795 21.5959C50.8786 21.6796 50.945 21.7789 50.9903 21.8883C51.0356 21.9976 51.0589 22.1148 51.0589 22.2332C51.0589 22.3515 51.0356 22.4687 50.9903 22.5781C50.945 22.6874 50.8786 22.7868 50.795 22.8704C50.7113 22.9541 50.6119 23.0205 50.5026 23.0658C50.3932 23.1111 50.276 23.1344 50.1577 23.1344H31.3368Z" fill="#BEC7CF"/>
<path d="M18.6644 50.0709C18.4254 50.0709 18.1962 49.976 18.0272 49.807C17.8581 49.6379 17.7632 49.4087 17.7632 49.1697C17.7632 48.9307 17.8581 48.7014 18.0272 48.5324C18.1962 48.3634 18.4254 48.2684 18.6644 48.2684H27.4546C27.6936 48.2684 27.9228 48.3634 28.0918 48.5324C28.2609 48.7014 28.3558 48.9307 28.3558 49.1697C28.3558 49.4087 28.2609 49.6379 28.0918 49.807C27.9228 49.976 27.6936 50.0709 27.4546 50.0709H18.6644ZM18.6644 56.2266C18.4254 56.2266 18.1962 56.1316 18.0272 55.9626C17.8581 55.7936 17.7632 55.5643 17.7632 55.3253C17.7632 55.0863 17.8581 54.857 18.0272 54.688C18.1962 54.519 18.4254 54.4241 18.6644 54.4241H52.9346C53.1736 54.4241 53.4028 54.519 53.5718 54.688C53.7409 54.857 53.8358 55.0863 53.8358 55.3253C53.8358 55.5643 53.7409 55.7936 53.5718 55.9626C53.4028 56.1316 53.1736 56.2266 52.9346 56.2266H18.6644Z" fill="#CF9646"/>
<path fill-rule="evenodd" clip-rule="evenodd" d="M54.5764 36.8546C55.1331 37.2245 55.5899 37.726 55.9063 38.3148C56.2227 38.9035 56.3888 39.5612 56.3901 40.2296V56.8942C56.3874 57.9695 55.959 59 55.1987 59.7604C54.4383 60.5208 53.4078 60.9492 52.3324 60.9518H54.6021C55.6774 60.9492 56.7079 60.5208 57.4682 59.7604C58.2286 59 58.6569 57.9695 58.6596 56.8942V40.2298C58.6604 39.6974 58.5549 39.1702 58.3494 38.6791C58.0408 37.9389 57.5206 37.3062 56.854 36.8602C56.1874 36.4143 55.4041 36.175 54.6021 36.1723H52.3324C53.1315 36.1722 53.9126 36.4097 54.5764 36.8546ZM30.5778 34.6325L26.9181 31.0566L26.1699 30.3232C25.3308 29.5058 24.5317 28.7833 23.3567 28.7833H21.0908C22.2621 28.7833 23.0612 29.5058 23.9004 30.3232L26.9181 33.2715L28.3119 34.6325C29.1474 35.4535 29.9466 36.1723 31.1216 36.1723H33.3911C32.2161 36.1723 31.4171 35.4535 30.5778 34.6325Z" fill="#E6A74E"/>
<path fill-rule="evenodd" clip-rule="evenodd" d="M56.6526 48.1517C58.1717 48.1517 59.6567 47.7012 60.9198 46.8572C62.1829 46.0132 63.1674 44.8136 63.7488 43.4101C64.3301 42.0066 64.4822 40.4623 64.1858 38.9723C63.8895 37.4824 63.1579 36.1138 62.0838 35.0396C61.0096 33.9654 59.641 33.2339 58.151 32.9375C56.6611 32.6411 55.1167 32.7932 53.7132 33.3746C52.3097 33.9559 51.1101 34.9404 50.2661 36.2035C49.4222 37.4666 48.9717 38.9517 48.9717 40.4708C48.9755 42.5067 49.7859 44.4582 51.2256 45.8978C52.6652 47.3374 54.6166 48.1479 56.6526 48.1517Z" fill="#25C73B"/>
<path d="M52.0626 41.5142C51.9767 41.4311 51.9082 41.3317 51.8611 41.2218C51.814 41.1119 51.7892 40.9938 51.7881 40.8743C51.7871 40.7547 51.8098 40.6361 51.855 40.5255C51.9002 40.4148 51.967 40.3142 52.0514 40.2296C52.1358 40.1449 52.2362 40.0779 52.3468 40.0324C52.4573 39.987 52.5758 39.9639 52.6954 39.9647C52.8149 39.9654 52.9331 39.9899 53.0431 40.0367C53.1531 40.0836 53.2527 40.1518 53.3361 40.2375L55.0656 41.967L59.9656 37.067C60.1344 36.8981 60.3635 36.8032 60.6023 36.8032C60.8411 36.8032 61.0701 36.8981 61.239 37.0669C61.4079 37.2358 61.5028 37.4648 61.5028 37.7036C61.5028 37.9425 61.4079 38.1715 61.2391 38.3404L55.7005 43.8787C55.5313 44.047 55.3024 44.1415 55.0638 44.1415C54.8252 44.1415 54.5963 44.047 54.4271 43.8787L52.0626 41.5142Z" fill="#EAF6FF"/>
<path fill-rule="evenodd" clip-rule="evenodd" d="M55.9996 32.8154C57.8842 32.9752 59.6435 33.8245 60.9408 35.2007C62.2381 36.5769 62.9822 38.3833 63.0306 40.274C63.0789 42.1647 62.4282 44.0067 61.2029 45.4475C59.9777 46.8882 58.264 47.8264 56.3901 48.0823C56.2624 48.1005 56.131 48.1152 55.9996 48.126C56.131 48.137 56.2588 48.1443 56.3901 48.148C56.4776 48.1517 56.5651 48.1517 56.6526 48.1517C57.3305 48.1529 58.0055 48.0633 58.6595 47.8853C60.4566 47.3988 62.0158 46.2761 63.0472 44.7262C64.0786 43.1762 64.5119 41.3043 64.2665 39.4588C64.0212 37.6132 63.1138 35.9196 61.7133 34.6929C60.3128 33.4662 58.5144 32.79 56.6526 32.7899C56.4336 32.7899 56.2151 32.7972 55.9995 32.8149L55.9996 32.8154Z" fill="#21B335"/>
<path fill-rule="evenodd" clip-rule="evenodd" d="M52.9346 18.8475V33.7459C53.4539 33.4589 54.0049 33.2336 54.5766 33.0745V18.8475H52.9346Z" fill="#D3DDE6"/>
</g>
<defs>
<clipPath id="clip0_121_1612">
<rect width="64" height="64" fill="white" transform="translate(0.333496)"/>
</clipPath>
</defs>
</svg>
