<svg width="49" height="48" viewBox="0 0 49 48" fill="none" xmlns="http://www.w3.org/2000/svg">
<g clip-path="url(#clip0_117_3665)">
<path d="M48.5001 8.34766V37.5651C48.4982 38.6719 48.0594 39.7331 47.2793 40.5181L28.674 21.9129L28.3818 21.4642L48.5001 8.34766Z" fill="#F6B445"/>
<path d="M47.279 40.5183C46.4939 41.2985 45.4327 41.7372 44.3259 41.7392H4.67378C3.56697 41.7372 2.50576 41.2985 1.7207 40.5183L20.3259 21.9131L20.5868 21.5061L24.4999 24L28.3816 21.4644L28.6737 21.9131L47.279 40.5183Z" fill="#F6A645"/>
<path d="M20.587 21.5058L20.3261 21.9128L1.72089 40.518C0.940725 39.733 0.501975 38.6718 0.500019 37.565V10.4346C0.498747 10.0135 0.56204 9.59474 0.687845 9.19287L1.54353 9.39107L20.587 21.5058Z" fill="#F6B445"/>
<path d="M48.5002 8.34767L28.3819 21.4642L24.5002 23.9998L20.5872 21.5059L1.54367 9.39118L0.687988 9.19288C1.23161 7.44835 2.84681 6.26025 4.67411 6.26074H43.2828C47.4566 6.26074 48.5002 8.34767 48.5002 8.34767Z" fill="#FED049"/>
</g>
<defs>
<clipPath id="clip0_117_3665">
<rect width="48" height="48" fill="white" transform="translate(0.5)"/>
</clipPath>
</defs>
</svg>
