<svg width="61" height="64" viewBox="0 0 61 64" fill="none" xmlns="http://www.w3.org/2000/svg">
<path d="M60.6039 23.0374L49.4914 57.4874C49.3164 58.0374 48.7289 58.3374 48.1789 58.1624L44.7539 57.0499C45.3039 57.2249 45.8914 56.9249 46.0664 56.3749L57.1789 21.9249C57.3539 21.3874 57.0664 20.8124 56.5414 20.6124C57.2789 20.8499 59.1664 21.4624 59.9289 21.7124C60.4789 21.8999 60.7914 22.4874 60.6039 23.0374Z" fill="#F4C122"/>
<path d="M57.179 21.9249L46.079 56.3749C45.904 56.9249 45.3165 57.2249 44.7665 57.0499L23.979 50.3499C23.4415 50.1499 23.154 49.5874 23.329 49.0374C26.6165 38.8374 31.4665 23.7999 34.754 13.5874C35.9665 13.9749 55.9415 20.4249 56.504 20.5999C57.0415 20.7874 57.354 21.3874 57.179 21.9249Z" fill="#F8DA79"/>
<path d="M57.7412 21.0125L34.7412 13.6L56.1287 15.375C57.2662 15.475 58.1162 16.475 58.0162 17.6125L57.7412 21.0125Z" fill="#E2AE1B"/>
<path d="M46.5536 22.0625C41.9536 20.4375 36.5286 23.1625 35.0911 27.825C32.5286 35.3875 40.6661 42.425 47.7786 38.775C54.9411 35.25 54.1536 24.5125 46.5536 22.0625ZM45.8286 23.3125C47.1036 23.2625 47.3911 25.875 47.2411 27.5375C45.8536 26.875 44.2286 26.3375 42.7161 26.0375C43.8036 24.325 44.9911 23.3125 45.8286 23.3125ZM47.0661 28.975C46.8161 30.6 46.1411 32.5875 45.3911 34.0375C43.7286 33.7625 41.8411 33.125 40.3411 32.3625C40.6036 30.7375 41.2661 28.75 42.0161 27.3C43.6786 27.5875 45.5661 28.2 47.0661 28.975ZM40.2411 23.7875C41.2786 23.2625 42.3911 23 43.5161 22.975C42.7286 23.65 41.9536 24.6125 41.2536 25.8125C39.9661 25.675 38.8036 25.6625 37.6411 25.9375C38.3286 25.0375 39.2036 24.3 40.2411 23.7875ZM36.0161 30.8625C36.7911 31.7625 37.7286 32.4625 38.8286 33.1C38.6661 34.475 38.7161 35.7125 38.9536 36.7125C37.1536 35.3125 36.0661 33.15 36.0161 30.8625ZM39.0661 31.65C34.9161 29.0125 35.6911 26.7375 40.5661 27.125C39.9161 28.475 39.3661 30.175 39.0661 31.65ZM41.2786 37.975C40.4411 37.7 39.9911 36.0625 40.1536 33.8C41.5411 34.4625 43.1661 34.9875 44.6786 35.2875C43.4661 37.2125 42.1161 38.25 41.2786 37.975ZM47.1536 37.55C46.1286 38.075 45.0161 38.3375 43.8911 38.3625C44.6786 37.7 45.4536 36.725 46.1536 35.525C47.3661 35.675 48.5911 35.6875 49.7536 35.4125C49.0661 36.3 48.1911 37.025 47.1536 37.55ZM51.0161 33.0875C50.7411 34.125 48.1536 34.3875 46.8411 34.225C47.4911 32.8625 48.0411 31.1625 48.3411 29.6875C49.4786 30.3375 51.4036 32.1125 51.0161 33.0875ZM50.5661 29.6375C50.0036 29.1375 49.3161 28.6625 48.5661 28.225C48.7286 26.8375 48.6786 25.6125 48.4536 24.6125C50.2536 26.025 51.3286 28.1875 51.3911 30.475C51.1536 30.2 50.8786 29.9125 50.5661 29.6375Z" fill="#365E7D"/>
<path d="M49.7661 35.4125C48.4161 37.1875 46.1411 38.3375 43.8911 38.3625C44.6786 37.7 45.4536 36.725 46.1536 35.525C47.3661 35.6625 48.5911 35.6875 49.7661 35.4125Z" fill="#E2F4F9"/>
<path d="M51.0163 33.0875C50.7413 34.125 48.1538 34.3875 46.8413 34.225C47.4913 32.8625 48.0413 31.1625 48.3413 29.6875C49.4788 30.3375 51.4038 32.1125 51.0163 33.0875Z" fill="#E2F4F9"/>
<path d="M51.3911 30.475C50.6161 29.5625 49.6786 28.8875 48.5661 28.2375C48.7286 26.85 48.6786 25.625 48.4536 24.625C50.2411 26.025 51.3286 28.1875 51.3911 30.475Z" fill="#E2F4F9"/>
<path d="M43.5039 22.975C42.7164 23.65 41.9414 24.6125 41.2414 25.8125C39.9539 25.675 38.7914 25.6625 37.6289 25.9375C38.9914 24.15 41.2664 23 43.5039 22.975Z" fill="#E2F4F9"/>
<path d="M47.2788 26.625C47.2788 26.925 47.2663 27.225 47.2413 27.5375C45.8538 26.875 44.2288 26.3375 42.7163 26.0375C44.8788 22.6125 47.2788 22.075 47.2788 26.625Z" fill="#E2F4F9"/>
<path d="M47.0663 28.9749C46.8163 30.5999 46.1413 32.5874 45.3913 34.0374C43.7288 33.7624 41.8413 33.1249 40.3413 32.3624C40.6038 30.7374 41.2663 28.7499 42.0163 27.2999C43.6788 27.5874 45.5663 28.1999 47.0663 28.9749Z" fill="#E2F4F9"/>
<path d="M44.6789 35.2874C42.0414 39.4374 39.8039 38.6999 40.1539 33.7999C41.5414 34.4624 43.1664 34.9874 44.6789 35.2874Z" fill="#E2F4F9"/>
<path d="M38.9536 36.725C37.1536 35.3125 36.0661 33.15 36.0161 30.875C36.7911 31.775 37.7286 32.475 38.8286 33.1125C38.6786 34.4875 38.7161 35.725 38.9536 36.725Z" fill="#E2F4F9"/>
<path d="M40.5664 27.1249C39.9164 28.4749 39.3539 30.1874 39.0664 31.6499C34.9164 29.0124 35.6914 26.7499 40.5664 27.1249Z" fill="#E2F4F9"/>
<path d="M47.5287 51.4749C47.3412 51.8874 47.3287 52.8124 46.6787 52.6374L28.4537 46.7624C27.8287 46.5249 28.3537 45.7749 28.4537 45.2999C28.3787 45.5374 28.5037 45.7874 28.7537 45.8624L46.9662 51.7499C47.1912 51.8249 47.4537 51.7124 47.5287 51.4749Z" fill="#5B90B9"/>
<path d="M47.8914 50.3624L47.5414 51.4624C47.4664 51.6999 47.2039 51.8374 46.9664 51.7624L28.7414 45.8749C28.5039 45.7999 28.3664 45.5499 28.4414 45.3124L28.7914 44.1999C28.8789 43.9624 29.1289 43.8499 29.3539 43.9249L47.5789 49.7999C47.8289 49.8749 47.9664 50.1249 47.8914 50.3624Z" fill="#81A7C6"/>
<path d="M45.2537 46.4375C45.1787 46.4375 45.1162 46.425 45.0412 46.4L33.4037 42.65C32.5537 42.375 32.9662 41.075 33.8287 41.35L45.4662 45.1C46.2037 45.325 46.0162 46.45 45.2537 46.4375Z" fill="#365E7D"/>
<path d="M6.21647 3.54995L6.61647 7.58745L3.59147 7.87495L3.20397 3.88745C3.12897 3.09995 3.69147 2.41245 4.47897 2.32495L7.07897 2.07495C6.51647 2.31245 6.15397 2.89995 6.21647 3.54995Z" fill="#5B90B9"/>
<path d="M28.804 5.39994L6.61646 7.57494L6.21646 3.53744C6.15396 2.88744 6.51646 2.29994 7.07896 2.06244L26.854 0.137441C27.629 0.0624414 28.329 0.624941 28.404 1.41244L28.804 5.39994Z" fill="#81A7C6"/>
<path d="M8.87881 30.725C7.90381 30.5625 6.86631 30.6125 5.85381 30.9L3.59131 7.87495L6.60381 7.57495C6.60381 7.59995 8.87881 30.7 8.87881 30.725Z" fill="#B0E4F8"/>
<path d="M30.8163 25.8124L25.8288 41.2499C23.4663 41.4874 15.9413 42.2249 13.7038 42.4499C13.6913 42.0124 13.8038 41.5874 14.0038 41.1999C14.9163 39.5624 15.1788 37.5624 14.5663 35.6249C13.7288 32.9624 11.4788 31.1374 8.86631 30.7249C8.86631 30.7124 6.59131 7.5999 6.59131 7.5874C6.59131 7.5874 28.7788 5.3999 28.7913 5.3999C28.8038 5.4124 30.8163 25.7999 30.8163 25.8124Z" fill="#E2F4F9"/>
<path d="M15.1039 18.6375L8.12891 22.0125L8.52891 19.7375C8.61641 19.2875 8.86641 18.875 9.25391 18.6125L14.4664 15.0375L15.1039 18.6375Z" fill="#F4C122"/>
<path d="M27.1165 20.15L19.6165 18.2L19.5415 14.5375L25.354 17.0375C25.779 17.225 26.1165 17.5625 26.279 18L27.1165 20.15Z" fill="#F4C122"/>
<path d="M23.7411 29.6L19.8036 28.575C19.7036 30.2125 17.3411 30.4375 16.9286 28.8625L13.2661 30.625C13.4036 30.15 13.3786 29.025 13.8911 28.75L16.5786 26.9125C16.1286 24.4125 14.8911 17.425 14.4661 15.0375C14.3661 14.5375 14.2411 13.9375 14.3661 13.425C14.5536 12.425 15.7161 9.34998 17.2161 10.2625C18.3536 11.0625 19.4911 12.55 19.5286 13.925C19.5286 14.225 19.6036 17.7875 19.6161 18.1875L19.7786 26.5875L22.7661 27.875C23.3161 28.05 23.5286 29.1625 23.7411 29.6Z" fill="#F8DA79"/>
<path d="M16.7038 36.5249C15.8538 36.5249 15.7913 35.2374 16.6413 35.1624L18.0038 35.0249C18.9038 34.9499 19.0288 36.2874 18.1413 36.3874L16.7788 36.5249C16.7538 36.5249 16.7288 36.5249 16.7038 36.5249Z" fill="#5B90B9"/>
<path d="M20.2912 36.1749C19.4412 36.1749 19.3787 34.8874 20.2287 34.8124L21.5912 34.6749C22.4787 34.5999 22.6162 35.9374 21.7287 36.0374L20.3662 36.1749C20.3287 36.1749 20.3037 36.1749 20.2912 36.1749Z" fill="#5B90B9"/>
<path d="M23.8664 35.8249C23.0164 35.8249 22.9539 34.5374 23.8039 34.4624L25.1664 34.3249C26.0664 34.2499 26.1914 35.5999 25.3039 35.6874L23.9414 35.8249C23.9039 35.8249 23.8914 35.8249 23.8664 35.8249Z" fill="#5B90B9"/>
<path d="M14.2165 45.1375L11.9165 45.8625C11.754 44.8375 11.1415 43.2 11.779 42.225C14.829 36.85 9.7415 30.2625 3.729 31.9C9.9415 27.675 17.6165 34.675 14.0165 41.2C13.3415 42.225 14.054 44.05 14.2165 45.1375Z" fill="#2C4D66"/>
<path d="M16.3165 55.575L14.004 56.3L12.4165 48.375L12.354 48.075L14.654 47.35L16.3165 55.575Z" fill="#2C4D66"/>
<path d="M14.0038 56.2999L10.9538 57.2499C10.2788 55.6874 7.3288 48.8874 6.7163 47.4874C6.2413 46.5374 5.75379 44.5874 4.64129 44.1624C-0.158706 41.9249 -0.758706 34.9249 3.72879 31.8999C7.3788 30.9249 11.2038 33.0124 12.3413 36.6499C12.9538 38.5874 12.6913 40.5874 11.7788 42.2249C11.5038 42.7249 11.4163 43.3124 11.5163 43.8749C12.1038 46.7999 13.4038 53.2999 14.0038 56.2999Z" fill="#365E7D"/>
<path d="M23.8664 55.3875C23.8914 56.2375 23.1914 56.875 22.3789 57.0375C22.5289 55.925 21.3789 54.9625 20.3039 55.3375L14.8414 57.05C11.5789 58.075 7.65391 59.3125 4.37891 60.3375C4.44141 59.725 4.85391 59.175 5.49141 58.975L8.59141 58C9.90391 57.5875 12.6914 56.7125 14.0164 56.3C15.5289 55.825 20.2039 54.3625 21.7914 53.8625C22.7914 53.525 23.8789 54.3375 23.8664 55.3875Z" fill="#5B90B9"/>
<path d="M22.3915 56.8749C22.3915 56.9249 22.3915 56.9874 22.379 57.0499L6.45398 62.0374C5.37898 62.3999 4.22898 61.4499 4.37898 60.3374C7.64148 59.3124 11.5665 58.0749 14.8415 57.0499L20.304 55.3374C21.3165 54.9999 22.404 55.8124 22.3915 56.8749Z" fill="#81A7C6"/>
<path d="M22.2911 59.4749L21.2911 59.7874L20.7661 58.1124L7.75361 62.1999L7.57861 61.6749L21.6036 57.2749L22.2911 59.4749Z" fill="#F4C122"/>
<path d="M21.2914 59.7874L8.27891 63.8749L7.75391 62.1999L20.7664 58.1124L21.2914 59.7874Z" fill="#F8DA79"/>
<path d="M14.6538 47.3499L12.3538 48.075C12.3163 47.875 11.9413 45.9999 11.9038 45.8624L14.2038 45.1375L14.6538 47.3499Z" fill="#F4C122"/>
<path d="M12.3538 48.0749L7.61631 49.5624L6.71631 47.4874L11.9163 45.8624C11.9413 45.9874 12.3163 47.8874 12.3538 48.0749Z" fill="#F8DA79"/>
</svg>
