<svg width="46" height="46" viewBox="0 0 46 46" fill="none" xmlns="http://www.w3.org/2000/svg">
<path fill-rule="evenodd" clip-rule="evenodd" d="M15.3352 36.7553H25.7066C26.4489 32.0109 31.8137 30.1596 31.8137 22.8232H28.2814C27.6594 22.8244 27.2877 23.5119 27.6282 24.0331C27.807 24.3069 27.911 24.634 27.911 24.9853C27.911 25.9484 27.1303 26.7291 26.1672 26.7291C25.2042 26.7291 24.4236 25.9484 24.4236 24.9853C24.4236 24.634 24.5276 24.3069 24.7063 24.0331C25.0468 23.5119 24.6752 22.8244 24.0532 22.8232H20.5209V19.5526C20.5197 18.9306 19.8322 18.559 19.3109 18.8995C19.0372 19.0782 18.7101 19.1822 18.3587 19.1822C17.3956 19.1822 16.615 18.4016 16.615 17.4385C16.615 16.4754 17.3956 15.6947 18.3587 15.6947C18.7101 15.6947 19.0372 15.7987 19.3109 15.9775C19.8322 16.318 20.5197 15.9464 20.5209 15.3243V12.0537C14.2702 12.1306 9.22803 16.9224 9.22803 22.8231C9.22803 30.1596 14.5928 32.0108 15.3352 36.7553Z" fill="#FFD54F"/>
<path fill-rule="evenodd" clip-rule="evenodd" d="M25.338 41.7149C25.1019 44.1022 23.0362 45.9688 20.5225 45.9688C17.9957 45.9688 15.9216 44.0827 15.7037 41.6776L15.0078 38.3566H26.0337L25.338 41.7149Z" fill="#E0DFE1"/>
<path fill-rule="evenodd" clip-rule="evenodd" d="M15.008 35.0399H26.0338C26.9459 35.0399 27.6921 35.7862 27.6921 36.6983C27.6921 37.6104 26.9459 38.3566 26.0338 38.3566C26.9459 38.3566 27.6921 39.1029 27.6921 40.015C27.6921 40.9271 26.9459 41.6733 26.0338 41.6733H15.008C14.0959 41.6733 13.3496 40.9271 13.3496 40.015C13.3496 39.1029 14.0959 38.3566 15.008 38.3566C14.0959 38.3566 13.3496 37.6104 13.3496 36.6983C13.3496 35.7862 14.0959 35.0399 15.008 35.0399Z" fill="#F0F0F0"/>
<path fill-rule="evenodd" clip-rule="evenodd" d="M39.9581 22.6437C40.3464 22.6437 40.6612 22.9586 40.6612 23.3469C40.6612 23.7352 40.3464 24.05 39.9581 24.05H36.5637C36.1754 24.05 35.8606 23.7352 35.8606 23.3469C35.8606 22.9586 36.1754 22.6437 36.5637 22.6437H39.9581ZM4.10478 33.655C3.76953 33.8491 3.34034 33.7348 3.14618 33.3995C2.95203 33.0642 3.0664 32.6351 3.40165 32.4409L6.34118 30.7437C6.67643 30.5496 7.10562 30.664 7.29978 30.9992C7.49393 31.3345 7.37956 31.7637 7.04431 31.9578L4.10478 33.655ZM1.15381 24.0501C0.765496 24.0501 0.450684 23.7353 0.450684 23.347C0.450684 22.9587 0.765496 22.6438 1.15381 22.6438H4.54812C4.93643 22.6438 5.25125 22.9587 5.25125 23.347C5.25125 23.7353 4.93643 24.0501 4.54812 24.0501H1.15381ZM3.40437 14.2528C3.06912 14.0602 2.95353 13.6322 3.14618 13.2971C3.33884 12.9618 3.76681 12.8462 4.10196 13.0389L7.0415 14.736C7.37675 14.9287 7.49234 15.3567 7.29968 15.6918C7.10703 16.0271 6.67906 16.1427 6.3439 15.95L3.40437 14.2528ZM10.2479 6.893C10.0553 6.55775 10.1709 6.12978 10.5061 5.93722C10.8414 5.74456 11.2692 5.86015 11.4619 6.1954L13.1591 9.13494C13.3517 9.47019 13.2361 9.89815 12.9009 10.0907C12.5656 10.2834 12.1377 10.1678 11.9451 9.83253L10.2479 6.893ZM19.8528 3.94475C19.8528 3.55644 20.1676 3.24162 20.5559 3.24162C20.9442 3.24162 21.2591 3.55644 21.2591 3.94475V7.33906C21.2591 7.72737 20.9442 8.04219 20.5559 8.04219C20.1676 8.04219 19.8528 7.72737 19.8528 7.33906V3.94475ZM37.7102 32.4409C38.0455 32.6351 38.1598 33.0642 37.9657 33.3995C37.7715 33.7348 37.3423 33.8491 37.0071 33.655L34.0676 31.9578C33.7323 31.7637 33.6179 31.3345 33.8121 30.9992C34.0062 30.664 34.4354 30.5496 34.7707 30.7437L37.7102 32.4409Z" fill="#FFD54F"/>
<path fill-rule="evenodd" clip-rule="evenodd" d="M40.2437 1.22713L43.0516 4.0341C44.422 6.40785 43.6012 9.47122 41.2275 10.8418L34.2646 14.8618L28.0171 14.3589L31.1405 4.4586C31.3391 3.82878 31.8908 3.41394 32.551 3.398C34.886 3.34138 37.1559 3.00988 40.2437 1.22713Z" fill="#FEDFC5"/>
<path fill-rule="evenodd" clip-rule="evenodd" d="M37.6078 16.6144C37.6078 10.7137 32.5657 5.92194 26.315 5.84506V9.11394C26.315 9.737 25.6268 10.1096 25.1051 9.76878C24.8313 9.58991 24.5042 9.48603 24.1529 9.48603C23.1898 9.48603 22.4092 10.2667 22.4092 11.2298C22.4092 12.1928 23.1898 12.9734 24.1529 12.9734C24.5043 12.9734 24.8314 12.8695 25.1051 12.6907C25.6268 12.3499 26.315 12.7225 26.315 13.3455V16.6144H29.8456C30.4688 16.6144 30.8413 17.3026 30.5005 17.8243C30.3216 18.0981 30.2177 18.4252 30.2177 18.7765C30.2177 19.7396 30.9984 20.5202 31.9615 20.5202C32.9245 20.5202 33.7052 19.7396 33.7052 18.7765C33.7052 18.4251 33.6012 18.098 33.4224 17.8243C33.0816 17.3026 33.4541 16.6144 34.0772 16.6144H37.6078Z" fill="#FFD54F"/>
<path fill-rule="evenodd" clip-rule="evenodd" d="M34.5268 6.97279C37.1258 7.13554 38.4253 7.21692 38.4253 7.21692L35.7436 11.862C35.2632 12.6941 34.1862 12.9826 33.3542 12.5023C32.5211 12.0212 32.2329 10.9461 32.7139 10.113L34.5268 6.97279Z" fill="#FECBAA"/>
<path fill-rule="evenodd" clip-rule="evenodd" d="M43.5078 8.61416L39.3771 1.45963C39.2145 1.17801 39.3119 0.814443 39.5936 0.651787L40.5319 0.110006C40.8137 -0.0526507 41.1772 0.0448493 41.3398 0.326474L45.4704 7.48101C45.633 7.76263 45.5357 8.12619 45.2539 8.28885L44.3156 8.83063C44.034 8.99329 43.6704 8.89579 43.5078 8.61416Z" fill="#C9F0FF"/>
</svg>
