<svg width="40" height="40" viewBox="0 0 40 40" fill="none" xmlns="http://www.w3.org/2000/svg">
<g clip-path="url(#clip0_96_210)">
<path d="M32.1874 22.6963L32.0235 22.3465L31.9542 21.5579L18.0307 12.5841L17.2499 12.0725L17.0365 11.9926C16.278 11.7084 15.4808 11.5407 14.672 11.4953L12.4623 11.3712C12.1728 11.355 11.8825 11.3514 11.5933 11.37C11.0717 11.4035 10.5481 11.3163 10.0635 11.1135L8.46361 10.4441L8.01916 10.76L4.33447 19.908L4.53963 20.3901L7.64166 22.3464L8.62338 23.0364L9.24463 23.0503L18.9294 29.8878L19.0213 30.5164L20.3535 31.4996C21.0934 32.0456 22.136 31.9829 22.7713 31.3182C23.3896 30.6713 23.4264 29.6974 22.9322 29.0108L23.6003 29.5039C24.362 30.0661 25.4411 29.9798 26.0673 29.2696C26.6738 28.5818 26.6585 27.5725 26.0921 26.904L26.4674 27.1809C27.1938 27.717 28.2148 27.6684 28.8539 27.0307C29.5335 26.3528 29.5514 25.2907 28.9671 24.5907L29.5305 25.0066C30.3181 25.5878 31.4271 25.4386 32.0324 24.6642C32.4863 24.0833 32.5138 23.3111 32.1874 22.6963Z" fill="#F1AFA2"/>
<path d="M4.99963 18.2566L4.33447 19.9082L4.53963 20.3903L7.64166 22.3466L8.62338 23.0366L9.24463 23.0504L18.9294 29.888L19.0213 30.5165L20.3535 31.4997C21.0934 32.0457 22.136 31.9831 22.7713 31.3183C22.8253 31.2619 22.8731 31.2023 22.9181 31.1414L4.99963 18.2566Z" fill="#E99C8C"/>
<path d="M0.0440677 18.7388L4.17133 8.27711C4.29876 7.95407 4.66399 7.79547 4.98704 7.92297L8.27118 9.2186C8.59422 9.34602 8.75282 9.71125 8.6254 10.0343L4.49805 20.496C4.37063 20.8191 4.0054 20.9777 3.68235 20.8502L0.398208 19.5546C0.0751615 19.4271 -0.0834323 19.062 0.0440677 18.7388Z" fill="#DBEDFF"/>
<path d="M2.19449 19.735L6.40465 9.06309C6.48809 8.85168 6.67137 8.70989 6.87903 8.66934L4.98699 7.92293C4.66395 7.79551 4.29871 7.9541 4.17129 8.27707L0.0440247 18.7389C-0.0833972 19.062 0.0751965 19.4272 0.398243 19.5547L2.22762 20.2763C2.14035 20.1154 2.12207 19.9186 2.19449 19.735Z" fill="#B5DCFF"/>
<path d="M8.58283 25.5506C7.91064 24.9807 7.82775 23.9737 8.39767 23.3015L9.88978 21.5501C10.4597 20.8779 11.4667 20.795 12.1388 21.365C12.811 21.9349 12.8939 22.9418 12.324 23.614L10.8319 25.3654C10.262 26.0376 9.25501 26.1205 8.58283 25.5506Z" fill="#FFDECF"/>
<path d="M11.0169 27.6145C10.3447 27.0446 10.2618 26.0377 10.8318 25.3655L12.3239 23.6141C12.8938 22.9419 13.9007 22.859 14.5729 23.4289C15.2451 23.9988 15.328 25.0058 14.7581 25.678L13.266 27.4294C12.696 28.1017 11.6891 28.1845 11.0169 27.6145Z" fill="#FFDECF"/>
<path d="M13.4515 29.6785C12.7793 29.1086 12.6964 28.1016 13.2663 27.4294L14.7584 25.678C15.3284 25.0059 16.3353 24.923 17.0075 25.4929C17.6797 26.0628 17.7626 27.0698 17.1926 27.7419L15.7005 29.4934C15.1306 30.1656 14.1237 30.2484 13.4515 29.6785Z" fill="#FFDECF"/>
<path d="M15.8856 31.7425C15.2134 31.1726 15.1305 30.1656 15.7004 29.4934L17.1925 27.742C17.7624 27.0698 18.7694 26.9869 19.4416 27.5568C20.1138 28.1268 20.1967 29.1337 19.6267 29.8059L18.1346 31.5573C17.5647 32.2295 16.5577 32.3124 15.8856 31.7425Z" fill="#FFDECF"/>
<path d="M10.0476 23.5564L11.5397 21.805C11.7082 21.6062 11.9154 21.4604 12.1403 21.3664C12.1398 21.3659 12.1394 21.3654 12.1388 21.365C11.4667 20.795 10.4597 20.8779 9.88979 21.5501L8.39768 23.3015C7.82775 23.9737 7.91064 24.9807 8.58275 25.5506C9.05619 25.9521 9.69525 26.0282 10.2312 25.8041C9.56049 25.2339 9.47807 24.228 10.0476 23.5564Z" fill="#FFCEBE"/>
<path d="M12.4822 25.6203L13.9743 23.8689C14.1428 23.6702 14.35 23.5244 14.5749 23.4303C14.5743 23.4298 14.574 23.4294 14.5734 23.429C13.9012 22.859 12.8943 22.9419 12.3243 23.6141L10.8322 25.3655C10.2623 26.0377 10.3452 27.0446 11.0174 27.6145C11.4908 28.016 12.1299 28.0921 12.6658 27.868C11.9951 27.2978 11.9126 26.292 12.4822 25.6203Z" fill="#FFCEBE"/>
<path d="M14.9163 27.6843L16.4084 25.9329C16.5769 25.7341 16.7841 25.5884 17.009 25.4943C17.0084 25.4938 17.008 25.4934 17.0075 25.4929C16.3353 24.923 15.3284 25.0059 14.7584 25.678L13.2663 27.4295C12.6964 28.1016 12.7793 29.1086 13.4514 29.6785C13.9248 30.0799 14.5639 30.1561 15.0998 29.932C14.4291 29.3618 14.3467 28.3559 14.9163 27.6843Z" fill="#FFCEBE"/>
<path d="M17.3503 29.7483L18.8424 27.9969C19.011 27.7981 19.2181 27.6523 19.4431 27.5583C19.4425 27.5578 19.4421 27.5573 19.4416 27.5569C18.7694 26.9869 17.7624 27.0698 17.1925 27.7419L15.7004 29.4933C15.1305 30.1655 15.2134 31.1725 15.8855 31.7424C16.3589 32.1438 16.998 32.22 17.5339 31.9959C16.8632 31.4258 16.7808 30.4199 17.3503 29.7483Z" fill="#FFCEBE"/>
<path d="M32.1288 10.7866L31.547 10.4711L29.2166 11.3313C28.5704 11.5699 27.8736 11.6385 27.1932 11.5307L20.3233 10.4418C19.5482 10.3189 18.7605 10.5756 18.2088 11.1337C17.0719 12.2838 14.9264 14.3147 12.5787 15.8215C12.0542 16.1581 11.9764 16.898 12.4282 17.3273C13.3676 18.2199 15.3026 18.9891 18.644 15.9881C18.9518 15.7117 19.4238 15.7231 19.7098 16.0219C20.6839 17.039 23.0787 18.9965 26.6518 18.382L32.0237 22.3466L35.3812 20.19L35.5461 19.8276L32.1288 10.7866Z" fill="#FFDECF"/>
<path d="M13.495 17.4991C15.8427 15.9923 17.9882 13.9614 19.1251 12.8113C19.6768 12.2532 20.4646 11.9966 21.2396 12.1195L28.1096 13.2084C28.79 13.3162 29.4867 13.2476 30.1329 13.009L32.4633 12.1488L32.6901 12.2717L32.1288 10.7866L31.547 10.4711L29.2166 11.3313C28.5704 11.5699 27.8736 11.6385 27.1932 11.5307L20.3233 10.4418C19.5482 10.3189 18.7605 10.5756 18.2088 11.1337C17.0719 12.2838 14.9264 14.3147 12.5787 15.8215C12.0542 16.1581 11.9764 16.898 12.4282 17.3273C12.6288 17.5179 12.875 17.7028 13.1705 17.8466C13.2454 17.7109 13.3533 17.5901 13.495 17.4991Z" fill="#FFCEBE"/>
<path d="M39.9559 18.7388L35.8287 8.27711C35.7012 7.95407 35.336 7.79547 35.0129 7.92297L31.7288 9.2186C31.4058 9.34602 31.2472 9.71125 31.3746 10.0343L35.5019 20.4961C35.6293 20.8191 35.9945 20.9777 36.3176 20.8502L39.6017 19.5546C39.9248 19.4271 40.0834 19.062 39.9559 18.7388Z" fill="#B16E3D"/>
<path d="M37.9022 19.9202L33.5805 8.96556C33.5176 8.80603 33.522 8.63696 33.579 8.48853L31.7288 9.21845C31.4058 9.34587 31.2472 9.7111 31.3746 10.0342L35.5019 20.4959C35.6293 20.819 35.9945 20.9776 36.3176 20.8501L38.0665 20.1601C37.9968 20.0952 37.9395 20.0148 37.9022 19.9202Z" fill="#985E33"/>
<path d="M25.9944 29.3449L22.3458 26.5211C21.9943 26.2491 21.4887 26.3136 21.2167 26.6651C20.9447 27.0166 21.0091 27.5221 21.3606 27.7941L22.9359 29.0133L23.6007 29.5039C24.334 30.0451 25.3601 29.9836 25.9944 29.3449Z" fill="#E99C8C"/>
<path d="M23.8263 24.1427C23.5552 24.495 23.6209 25.0003 23.9731 25.2714L26.122 26.9259L26.4677 27.181C27.1941 27.7171 28.2151 27.6685 28.8542 27.0308C28.8605 27.0246 28.8657 27.0178 28.8718 27.0115L24.9551 23.9961C24.6029 23.7248 24.0975 23.7906 23.8263 24.1427Z" fill="#E99C8C"/>
<path d="M27.592 21.4978C27.2399 21.2267 26.7345 21.2921 26.4632 21.6442C26.192 21.9963 26.2574 22.5016 26.6095 22.7729L28.9924 24.609L29.531 25.0065C30.2637 25.5472 31.2739 25.455 31.8986 24.8162L27.592 21.4978Z" fill="#E99C8C"/>
</g>
<defs>
<clipPath id="clip0_96_210">
<rect width="40" height="40" fill="white"/>
</clipPath>
</defs>
</svg>
