<svg width="65" height="64" viewBox="0 0 65 64" fill="none" xmlns="http://www.w3.org/2000/svg">
<path fill-rule="evenodd" clip-rule="evenodd" d="M32.6664 5.38425C47.834 5.38425 60.2439 17.7944 60.2439 32.9617V40.0906H5.08887V32.9617C5.08887 17.7941 17.4987 5.38425 32.6664 5.38425Z" fill="#FFDA2D"/>
<path fill-rule="evenodd" clip-rule="evenodd" d="M46.0159 8.85574C46.6734 9.22237 47.3149 9.61462 47.9384 10.0321L46.735 28.0555C46.6984 28.6056 46.2227 29.0219 45.6725 28.9852C45.1224 28.9486 44.7062 28.4729 44.7428 27.9227L46.0159 8.85574ZM17.3945 10.0321C18.018 9.61462 18.6595 9.22237 19.317 8.85574L20.59 27.9227C20.6267 28.4729 20.2104 28.9486 19.6603 28.9852C19.1102 29.0219 18.6344 28.6056 18.5978 28.0555L17.3945 10.0321Z" fill="#FDB800"/>
<path fill-rule="evenodd" clip-rule="evenodd" d="M37.5726 39.471L27.7598 38.5501V4.08062C27.7598 2.49387 29.058 1.19562 30.6448 1.19562H34.6875C36.2743 1.19562 37.5725 2.49399 37.5725 4.08062V39.471H37.5726Z" fill="#FDB800"/>
<path fill-rule="evenodd" clip-rule="evenodd" d="M5.14888 34.821H60.1843C62.0308 34.821 63.5416 36.3317 63.5416 38.1784V39.3771C63.5416 41.2236 62.0309 42.7345 60.1843 42.7345H5.14888C3.30225 42.7344 1.7915 41.2236 1.7915 39.377V38.1782C1.7915 36.3317 3.30225 34.821 5.14888 34.821Z" fill="#FDB800"/>
<path fill-rule="evenodd" clip-rule="evenodd" d="M46.8103 34.1492C36.1041 27.7974 29.2287 27.7972 18.5225 34.1492V46.3569C18.5225 50.4641 20.288 53.908 23.6233 56.3051L32.6665 62.8045L41.7092 56.305C45.0446 53.9077 46.8103 50.4642 46.8103 46.3567V34.1492Z" fill="#3CBE52"/>
<path fill-rule="evenodd" clip-rule="evenodd" d="M43.291 36.1917C35.2949 31.8171 30.0381 31.817 22.042 36.1916V46.3567C22.042 49.3304 23.2626 51.7116 25.6774 53.4471L32.6665 58.4704L39.6552 53.4472C42.07 51.7116 43.291 49.3306 43.291 46.3569V36.1917Z" fill="#72D561"/>
<path fill-rule="evenodd" clip-rule="evenodd" d="M36.9103 38.8995C37.539 38.2707 38.5584 38.2707 39.1872 38.8995C39.8158 39.5282 39.8158 40.5476 39.1872 41.1764L31.4354 48.9281C30.7234 49.6402 29.547 49.5282 28.9755 48.7097L25.6343 44.5051C25.082 43.8104 25.1974 42.7994 25.8922 42.2471C26.5869 41.6949 27.5979 41.8102 28.1502 42.505L30.4325 45.3772L36.9103 38.8995Z" fill="white"/>
</svg>
