<svg width="48" height="48" viewBox="0 0 48 48" fill="none" xmlns="http://www.w3.org/2000/svg">
<path fill-rule="evenodd" clip-rule="evenodd" d="M23.9736 9.01318C30.5611 9.01318 35.9041 14.3667 35.9041 20.9672C35.9041 28.7381 30.3235 26.9214 30.3235 41.018H17.6236C17.6236 26.9214 12.043 28.7381 12.043 20.9672C12.043 14.3667 17.3832 9.01318 23.9736 9.01318Z" fill="#FDCD56"/>
<path fill-rule="evenodd" clip-rule="evenodd" d="M23.3159 1.7411C23.3159 1.37752 23.6105 1.08228 23.9735 1.08228C24.3363 1.08228 24.631 1.37752 24.631 1.7411V5.90148C24.631 6.26505 24.3363 6.5603 23.9735 6.5603C23.6105 6.5603 23.3159 6.26505 23.3159 5.90148V1.7411Z" fill="#FDCD56"/>
<path fill-rule="evenodd" clip-rule="evenodd" d="M37.0773 6.90627C37.334 6.64923 37.7507 6.64942 38.0072 6.90674C38.2637 7.16396 38.2635 7.58147 38.0067 7.83841L35.0679 10.7802C34.8112 11.0372 34.3945 11.0369 34.138 10.7797C33.8816 10.5225 33.8818 10.105 34.1385 9.84801L37.0773 6.90627Z" fill="#FDCD56"/>
<path fill-rule="evenodd" clip-rule="evenodd" d="M43.1622 20.3083C43.5251 20.3083 43.8197 20.6035 43.8197 20.9672C43.8197 21.3307 43.5251 21.626 43.1622 21.626H39.0071C38.6442 21.626 38.3496 21.3307 38.3496 20.9672C38.3496 20.6035 38.6442 20.3083 39.0071 20.3083H43.1622Z" fill="#FDCD56"/>
<path fill-rule="evenodd" clip-rule="evenodd" d="M38.0067 34.096C38.2635 34.353 38.2637 34.7705 38.0072 35.0277C37.7507 35.285 37.334 35.2852 37.0773 35.0282L34.1385 32.0865C33.8818 31.8294 33.8816 31.4119 34.138 31.1547C34.3945 30.8975 34.8112 30.8973 35.0679 31.1543L38.0067 34.096Z" fill="#FDCD56"/>
<path fill-rule="evenodd" clip-rule="evenodd" d="M9.94003 7.83823C9.6834 7.5811 9.6834 7.1636 9.94003 6.90647C10.1967 6.64934 10.6133 6.64934 10.87 6.90647L13.806 9.84821C14.0626 10.1053 14.0626 10.5228 13.806 10.78C13.5493 11.037 13.1326 11.037 12.876 10.78L9.94003 7.83823Z" fill="#FDCD56"/>
<path fill-rule="evenodd" clip-rule="evenodd" d="M4.78498 21.626C4.42211 21.626 4.12744 21.3307 4.12744 20.9672C4.12744 20.6035 4.42211 20.3083 4.78498 20.3083H8.93721C9.30008 20.3083 9.59474 20.6035 9.59474 20.9672C9.59474 21.3307 9.30008 21.626 8.93721 21.626H4.78498Z" fill="#FDCD56"/>
<path fill-rule="evenodd" clip-rule="evenodd" d="M10.87 35.0279C10.6133 35.2851 10.1967 35.2851 9.94003 35.0279C9.6834 34.7709 9.6834 34.3534 9.94003 34.0963L12.876 31.1545C13.1326 30.8974 13.5493 30.8974 13.806 31.1545C14.0626 31.4116 14.0626 31.8292 13.806 32.0862L10.87 35.0279Z" fill="#FDCD56"/>
<path fill-rule="evenodd" clip-rule="evenodd" d="M22.7664 26.6021C22.8016 26.6025 22.8361 26.6027 22.8699 26.6027C23.5557 26.6027 24.1884 26.6012 24.8162 26.5982C24.8514 25.8604 25.017 24.9498 25.3701 24.3252C25.653 23.8247 26.0652 23.3508 26.906 23.1223C27.6394 22.923 28.6351 22.9479 29.298 23.5738C29.7251 23.9771 30.0534 24.6452 30.0114 25.7454C29.966 26.9343 29.2528 27.4813 28.5 27.7278C27.8876 27.9283 27.2482 27.8971 27.0986 27.8985C26.762 27.9019 26.4381 27.9048 26.1209 27.9075C26.11 30.8381 26.0726 38.7524 26.0726 39.898C26.0726 40.2617 25.7779 40.5569 25.415 40.5569C25.0521 40.5569 24.7575 40.2617 24.7575 39.898C24.7575 38.7536 24.7948 30.8534 24.8058 27.9159C24.1814 27.9189 23.5519 27.9204 22.8699 27.9204C22.8321 27.9204 22.7934 27.9202 22.7538 27.9197C22.7236 31.2614 22.6559 39.4068 22.6559 39.898C22.6559 40.2617 22.3614 40.5569 21.9984 40.5569C21.6355 40.5569 21.3409 40.2617 21.3409 39.898C21.3409 39.4051 21.4089 31.2133 21.439 27.8806C21.3234 27.8779 21.212 27.8761 21.1076 27.8761C20.749 27.8761 20.0492 27.9157 19.4381 27.7534C18.6153 27.5348 17.9316 27.0149 17.9316 25.87C17.9316 24.5348 18.2141 23.8859 18.677 23.4127C19.5301 22.5406 20.3632 22.5843 21.1176 22.8258C22.066 23.1294 22.5016 23.8346 22.6777 24.6493C22.8166 25.2912 22.7749 26.0057 22.7672 26.5368C22.7671 26.5526 22.7668 26.5746 22.7664 26.6021ZM21.4517 26.5633C21.452 26.5448 21.4522 26.5296 21.4524 26.5177C21.4588 26.0707 21.5093 25.4686 21.3924 24.9283C21.313 24.5604 21.1455 24.218 20.7172 24.0809C20.3777 23.9721 20.0002 23.9424 19.6161 24.335C19.3315 24.626 19.2467 25.0492 19.2467 25.87C19.2467 26.2531 19.4999 26.4067 19.7752 26.4798C20.2623 26.6092 20.8217 26.5585 21.1076 26.5585C21.2158 26.5585 21.3316 26.5604 21.4517 26.5633ZM26.132 26.5896C26.4415 26.5871 26.7575 26.5843 27.0856 26.581C27.1927 26.5799 27.6527 26.6189 28.0915 26.4753C28.3898 26.3776 28.6793 26.1662 28.6973 25.695C28.7193 25.1172 28.6204 24.7446 28.3961 24.5328C28.0817 24.236 27.5981 24.2995 27.2502 24.394C26.8463 24.5038 26.6504 24.734 26.5144 24.9745C26.2646 25.4164 26.16 26.0547 26.132 26.5896Z" fill="#F5B945"/>
<path fill-rule="evenodd" clip-rule="evenodd" d="M29.7715 44.3674C29.7715 43.4292 29.0113 42.6675 28.0748 42.6675H19.872C18.9356 42.6675 18.1753 43.4292 18.1753 44.3674V45.2175C18.1753 46.1557 18.9356 46.9175 19.872 46.9175H28.0748C29.0113 46.9175 29.7715 46.1557 29.7715 45.2175V44.3674Z" fill="#CAD0D7"/>
<path fill-rule="evenodd" clip-rule="evenodd" d="M32.0015 39.2209C32.0015 38.6419 31.5323 38.1719 30.9545 38.1719H16.9928C16.4149 38.1719 15.9458 38.6419 15.9458 39.2209V40.12C15.9458 40.699 16.4149 41.1691 16.9928 41.1691H30.9545C31.5323 41.1691 32.0015 40.699 32.0015 40.12V39.2209Z" fill="#F4F6F8"/>
<path fill-rule="evenodd" clip-rule="evenodd" d="M32.0015 42.218C32.0015 41.639 31.5323 41.1689 30.9545 41.1689H16.9928C16.4149 41.1689 15.9458 41.639 15.9458 42.218V43.1172C15.9458 43.6961 16.4149 44.1662 16.9928 44.1662H30.9545C31.5323 44.1662 32.0015 43.6961 32.0015 43.1172V42.218Z" fill="#E4E8EB"/>
</svg>
