<svg width="64" height="64" viewBox="0 0 64 64" fill="none" xmlns="http://www.w3.org/2000/svg">
<rect width="64" height="64" rx="6" fill="#0E7490"/>
<path d="M44.8003 44.7999V35.4239C44.8003 30.8159 43.8083 27.2959 38.4323 27.2959C35.8403 27.2959 34.1123 28.7039 33.4083 30.0479H33.3443V27.7119H28.2563V44.7999H33.5683V36.3199C33.5683 34.0799 33.9843 31.9359 36.7363 31.9359C39.4563 31.9359 39.4883 34.4639 39.4883 36.4479V44.7679H44.8003V44.7999Z" fill="white"/>
<path d="M19.6162 27.7119H24.9282V44.7999H19.6162V27.7119Z" fill="white"/>
<path d="M22.2722 19.2C20.5762 19.2 19.2002 20.576 19.2002 22.272C19.2002 23.968 20.5762 25.376 22.2722 25.376C23.9682 25.376 25.3442 23.968 25.3442 22.272C25.3442 20.576 23.9682 19.2 22.2722 19.2Z" fill="white"/>
</svg>
