<svg width="64" height="64" viewBox="0 0 64 64" fill="none" xmlns="http://www.w3.org/2000/svg">
<g clip-path="url(#clip0_119_5957)">
<path d="M5.73339 49.1256L16.5033 59.7933C18.8864 61.1941 21.475 62.2824 24.2141 63.0003L54.929 53.6736C59.7166 48.2696 62.625 41.1624 62.625 33.3748C62.625 16.4609 48.9136 2.74951 31.9998 2.74951C15.0859 2.74951 1.37451 16.4609 1.37451 33.3748C1.37451 39.1358 2.96639 44.5244 5.73264 49.1271L5.73339 49.1256Z" fill="#49B1F7"/>
<path d="M12.9394 12.3248V3.76288H10.6704V6.28888C11.0724 7.31463 11.9217 9.51213 12.9394 12.3248Z" fill="#DEEEFF"/>
<path d="M13.4243 23.854C12.1211 25.8117 10.9488 29.1237 12.7651 33.7845C14.2181 37.5134 12.9446 40.1767 11.5961 42.9962C10.1302 46.0614 8.50832 49.4553 10.0659 54.7394C11.9722 56.6965 14.1353 58.4019 16.5053 59.795C16.7149 58.271 18.4537 45.6533 19.5559 38.4463C20.0927 34.9364 18.2824 27.7847 16.1586 21.0534C15.4951 21.5172 14.3693 22.4345 13.4243 23.854Z" fill="#FFDD40"/>
<path d="M16.2181 21.2429C13.6826 13.1754 10.6703 5.65601 10.6703 5.65601C10.6703 5.65601 2.2743 38.7771 5.73318 49.1256C7.02805 51.2805 8.58168 53.2616 10.3491 55.029C7.06655 44.6799 16.0404 41.6744 12.9394 33.7164C10.0967 26.4214 14.5426 22.4331 16.2181 21.2429Z" fill="#FFC839"/>
<path d="M14.1866 3.44184C14.6797 2.12707 14.0135 0.661552 12.6988 0.168514C11.384 -0.324524 9.91848 0.34162 9.42544 1.65639C8.9324 2.97116 9.59855 4.43667 10.9133 4.92971C12.2281 5.42275 13.6936 4.75661 14.1866 3.44184Z" fill="#6C5475"/>
<path d="M42.2598 17.3186C41.9189 17.7157 41.561 18.0479 41.2192 18.3134C40.553 18.8307 39.731 19.1116 38.8844 19.1116C38.8534 19.1116 38.8228 19.1085 38.7918 19.1077C38.7495 19.8841 38.5363 21.337 37.5874 22.3326C37.8124 22.4404 38.539 22.8159 38.8827 23.3206C39.292 22.7192 40.2475 22.3001 40.2475 22.3001L44.0951 20.3431C43.7724 20.2435 43.4441 20.1544 43.1085 20.077C42.4553 19.4237 42.2897 18.1851 42.2598 17.3186Z" fill="#FFAA7B"/>
<path d="M37.5178 22.3001C37.5178 22.3001 37.6123 22.3416 37.7543 22.417C38.7754 21.4197 38.9988 19.9029 39.0419 19.105C38.9894 19.1071 38.9371 19.1115 38.8844 19.1115C38.0378 19.1115 37.2158 18.8305 36.5496 18.3132C36.2078 18.0477 35.8499 17.7155 35.5089 17.3185C35.479 18.185 35.3134 19.4236 34.6601 20.077C34.3238 20.1546 33.9948 20.2439 33.6714 20.3437L37.5178 22.3001Z" fill="#FC9460"/>
<path d="M39.047 30.362C39.047 27.2405 39.047 23.897 39.047 23.4904C39.047 22.7075 37.6527 22.0961 37.6527 22.0961L35.2173 20.8574C35.2174 24.1735 35.4672 27.454 35.8584 30.362H39.047Z" fill="#BEC8F7"/>
<path d="M41.8724 30.362C42.2574 27.5164 42.512 24.269 42.5348 20.864L40.1121 22.0961C40.1121 22.0961 38.7178 22.7075 38.7178 23.4904V30.362H41.8724Z" fill="#D3DCFB"/>
<path d="M43.1378 30.362C44.2409 30.362 45.2128 30.9235 45.7836 31.7761H53.7323C53.5794 30.6833 53.4726 29.5841 53.401 28.4824C53.2743 26.5311 52.6601 23.6151 50.2306 22.4291C50.0031 22.3181 49.7588 22.2233 49.4985 22.1448L45.306 20.5165C45.0794 20.422 44.8509 20.3328 44.6194 20.2499C44.4369 20.486 44.1718 20.7923 43.8208 21.1143C43.5779 24.326 42.9043 27.6879 42.2544 30.362H43.1378Z" fill="#56415E"/>
<path d="M31.9848 31.7761C32.5556 30.9235 33.5274 30.362 34.6305 30.362H35.6585C35.1881 27.4884 34.9138 24.3112 34.7551 21.7556C33.9798 21.2266 33.4514 20.6424 33.148 20.2502C32.9175 20.3327 32.6899 20.4216 32.4641 20.5157L28.2671 22.1455C28.009 22.2235 27.7666 22.3175 27.5409 22.4275C25.1076 23.6131 24.4935 26.5327 24.3671 28.4849C24.2959 29.5857 24.1889 30.684 24.0361 31.776H31.9848V31.7761Z" fill="#45304C"/>
<path d="M41.2079 30.362C40.7782 26.9215 40.081 24.6891 40.081 24.6891C39.243 24.6891 38.523 24.6891 37.685 24.6891C37.685 24.6891 36.9877 26.9215 36.5581 30.362H41.2079Z" fill="#FF4155"/>
<path d="M38.883 28.0938C38.883 27.2688 39.558 26.5938 40.383 26.5938H40.564C40.2977 25.3836 40.081 24.6891 40.081 24.6891C39.243 24.6891 38.523 24.6891 37.685 24.6891C37.685 24.6891 36.9877 26.9215 36.5581 30.362H38.883V28.0938Z" fill="#E80054"/>
<path d="M40.2497 22.0739H38.8835H37.5174C37.5174 22.0739 36.4689 22.455 36.7234 23.0944C36.9779 23.7339 37.6849 24.6891 37.6849 24.6891C38.4505 25.016 39.3164 25.016 40.082 24.6891C40.8477 24.3622 40.789 23.7339 41.0435 23.0944C41.2982 22.455 40.2497 22.0739 40.2497 22.0739Z" fill="#FF7186"/>
<path d="M42.4245 18.7704C42.2801 19.394 41.7621 20.965 40.084 21.9186C39.9093 22.0179 39.8674 22.251 39.9996 22.4024L41.7924 24.4556C41.9598 24.6484 42.1904 24.738 42.4181 24.7338C42.5368 22.8521 42.5499 20.4655 42.5335 18.7703L42.4245 18.7704Z" fill="#DEEEFF"/>
<path d="M37.6819 21.9186C36.042 20.9866 35.51 19.4655 35.3519 18.8145H35.2338C35.2031 20.6674 35.2026 22.891 35.3171 24.7321C35.5546 24.7455 35.7986 24.6571 35.9735 24.4556L37.7663 22.4024C37.8985 22.2511 37.8566 22.018 37.6819 21.9186Z" fill="#D3DCFB"/>
<path d="M31.0202 23.9517L32.6328 24.3434C32.8232 24.3896 32.9999 24.4815 33.1484 24.6113L33.9318 25.2962L33.7869 25.4046L33.9318 25.4272L35.4211 24.2548C35.2952 22.0664 35.3657 18.5719 35.3657 18.5719L34.4151 18.9129C33.6654 19.2035 33.0244 19.7264 32.5823 20.4075L30.7438 23.24C30.5682 23.5105 30.7103 23.8764 31.0202 23.9517Z" fill="#56415E"/>
<path d="M32.3986 31.2769C32.973 30.7114 33.7609 30.3621 34.6306 30.3621H35.9969C35.684 28.0376 35.5103 25.844 35.414 24.1294L33.9318 25.2961L31.8285 26.8716C31.3228 27.2505 31.1156 27.9203 31.3215 28.524C31.644 29.4696 32.0171 30.4026 32.3986 31.2769Z" fill="#6C5475"/>
<path d="M46.7192 23.9517L45.1066 24.3434C44.9162 24.3896 44.7395 24.4815 44.591 24.6113L43.8076 25.2962L43.9525 25.4046L43.8076 25.4272L42.3184 24.2548C42.4442 22.0664 42.4027 18.5719 42.4027 18.5719L43.336 18.9109C44.0784 19.2029 44.713 19.723 45.1516 20.3988L46.9956 23.2399C47.1711 23.5105 47.0291 23.8764 46.7192 23.9517Z" fill="#6C5475"/>
<path d="M43.1378 30.362C43.9974 30.362 44.7768 30.7035 45.3496 31.2574C45.7282 30.3889 46.0981 29.4625 46.4181 28.524C46.6239 27.9203 46.4168 27.2504 45.9111 26.8716L43.8078 25.2961L42.3256 24.1294C42.2294 25.844 42.0557 28.0376 41.7427 30.3621H43.1378V30.362Z" fill="#876D93"/>
<path d="M24.2966 33.7164C23.8113 33.7164 23.418 33.323 23.418 32.8378V24.6479C23.418 22.5548 24.3463 20.5933 25.965 19.2664L27.641 17.8924C28.0162 17.5846 28.57 17.6398 28.8773 18.0149C29.1851 18.3901 29.1302 18.9436 28.755 19.2514L27.079 20.6254C25.869 21.6173 25.1752 23.0834 25.1752 24.648V32.8379C25.1752 33.323 24.7818 33.7164 24.2966 33.7164Z" fill="#876D93"/>
<path d="M28.1991 20.0363C27.7753 20.0363 27.3552 19.8534 27.0658 19.5001C26.5531 18.8748 26.6446 17.952 27.2699 17.4394L28.4291 16.4893C29.0546 15.9766 29.9773 16.068 30.4898 16.6935C31.0027 17.3189 30.9111 18.2415 30.2858 18.7543L29.1267 19.7044C28.8543 19.9275 28.5257 20.0363 28.1991 20.0363Z" fill="#DEEEFF"/>
<path d="M53.4714 33.7164C53.9566 33.7164 54.35 33.323 54.35 32.8378V24.6479C54.35 22.5548 53.4216 20.5933 51.803 19.2664L50.127 17.8924C49.7518 17.5846 49.1981 17.6398 48.8906 18.0149C48.5829 18.3901 48.6378 18.9436 49.013 19.2514L50.689 20.6254C51.899 21.6173 52.5928 23.0834 52.5928 24.648V32.8379C52.5928 33.323 52.9861 33.7164 53.4714 33.7164Z" fill="#876D93"/>
<path d="M49.5694 20.0363C49.9932 20.0363 50.4133 19.8534 50.7027 19.5001C51.2156 18.8748 51.1239 17.952 50.4986 17.4394L49.3394 16.4893C48.7139 15.9766 47.7912 16.068 47.2787 16.6935C46.7659 17.3189 46.8574 18.2415 47.4828 18.7543L48.6419 19.7044C48.9142 19.9275 49.2428 20.0363 49.5694 20.0363Z" fill="#DEEEFF"/>
<path d="M55.5083 42.1246H38.2595C38.3178 42.1921 38.3805 42.2591 38.4523 42.3253C37.0901 42.6314 32.7946 43.9953 32.7946 49.0103L32.7945 49.3361C32.7934 52.2698 32.7921 55.5946 33.5566 58.3958C34.2463 60.9229 35.4578 62.6246 37.2354 63.5518C44.2318 62.3459 50.416 58.7676 54.9291 53.6735C55.3148 50.9473 55.5106 48.1973 55.5106 45.4436V42.1245C55.5098 42.1245 55.509 42.1246 55.5083 42.1246Z" fill="#D1714B"/>
<path d="M22.2578 42.1245V45.4436C22.2578 48.3181 22.4687 51.1888 22.8889 54.0324L24.2141 63.0001C26.7002 63.6518 29.3092 64 31.9997 64C33.8948 64 35.7489 63.8254 37.5488 63.4958C32.8836 61.2871 32.9821 54.3271 32.9821 49.0104C32.9821 43.177 38.8842 42.4338 38.8842 42.4338C38.7382 42.3291 38.6177 42.2261 38.5153 42.1246H22.2603C22.2594 42.1246 22.2587 42.1245 22.2578 42.1245Z" fill="#BC6242"/>
<path d="M46.167 38.2086C45.5644 39.1086 44.5385 39.7014 43.374 39.7014H38.2553C38.35 39.8031 38.4562 39.9036 38.5738 40.0029C38.3123 40.2134 37.9025 40.6284 37.8808 41.1754C37.8649 41.5755 38.0568 41.961 38.4519 42.3252C38.3313 42.3524 38.1869 42.3882 38.0254 42.4337H55.5079C56.4859 42.4337 57.2787 41.641 57.2787 40.663V38.2086H46.167Z" fill="#BC6242"/>
<path d="M38.8844 40.0105C38.7465 39.9065 38.626 39.8034 38.5196 39.7014H34.3944C33.2299 39.7014 32.204 39.1086 31.6014 38.2086H20.4897V40.663C20.4897 41.641 21.2825 42.4337 22.2605 42.4337H38.8844C37.0469 41.1175 38.8844 40.0105 38.8844 40.0105Z" fill="#AD563B"/>
<path d="M53.4098 37.2955V32.7843C53.4098 32.1091 53.957 31.5619 54.6321 31.5619H37.709C37.6981 31.6424 37.6913 31.7241 37.6929 31.8081C37.7036 32.3598 38.0028 32.8673 38.5826 33.3189C38.2913 33.592 37.7668 34.1904 37.7378 34.979C37.715 35.5985 38.0015 36.1964 38.5898 36.7586C38.2785 37.0121 37.6993 37.584 37.6726 38.3443C37.6706 38.4024 37.6728 38.4603 37.6771 38.5179H54.6319C53.957 38.5179 53.4098 37.9706 53.4098 37.2955Z" fill="#D1714B"/>
<path d="M59.352 37.2955V32.7843C59.352 32.1091 58.8048 31.5619 58.1297 31.5619H54.382C53.7069 31.5619 53.1597 32.1091 53.1597 32.7843V37.2955C53.1597 37.9706 53.7069 38.5179 54.382 38.5179H58.1297C58.8048 38.5179 59.352 37.9706 59.352 37.2955Z" fill="#E58B6C"/>
<path d="M19.6389 31.5619C18.9638 31.5619 18.4165 32.1091 18.4165 32.7843V37.2955C18.4165 37.9706 18.9638 38.5179 19.6389 38.5179H37.8659C37.7748 37.4948 38.8843 36.7728 38.8843 36.7728C36.7239 34.91 38.8843 33.3071 38.8843 33.3071C38.016 32.7105 37.8163 32.0946 37.898 31.562H19.6389V31.5619Z" fill="#BC6242"/>
<path d="M43.3743 30.0692H38.5936C38.2821 30.3519 37.6773 31.0055 37.6931 31.808C37.7038 32.3597 38.003 32.8672 38.5828 33.3188C38.2915 33.5919 37.767 34.1903 37.738 34.9789C37.7152 35.5984 38.0017 36.1963 38.59 36.7585C38.2787 37.012 37.6995 37.5839 37.6728 38.3442C37.6526 38.9239 37.9555 39.4809 38.5741 40.0029C38.5711 40.0053 38.5678 40.008 38.5648 40.0105H43.3743C45.2295 40.0105 46.7334 38.5067 46.7334 36.6514V33.4283C46.7334 31.5732 45.2295 30.0692 43.3743 30.0692Z" fill="#E58B6C"/>
<path d="M38.8843 30.0692H34.3943C32.5392 30.0692 31.0352 31.5732 31.0352 33.4283V36.6514C31.0352 38.5067 32.5392 40.0105 34.3943 40.0105H38.8843C36.578 38.271 38.8843 36.7727 38.8843 36.7727C36.7239 34.9099 38.8843 33.307 38.8843 33.307C36.6249 31.7548 38.8843 30.0692 38.8843 30.0692Z" fill="#D1714B"/>
<path d="M42.4751 33.3071H38.5395C37.9803 33.8946 37.0781 35.2374 38.5506 36.7728H42.4751C42.6996 36.7728 42.8816 36.5908 42.8816 36.3663V33.7136C42.8816 33.489 42.6996 33.3071 42.4751 33.3071Z" fill="#FFDD40"/>
<path d="M38.8841 33.3071H35.2932C35.0687 33.3071 34.8867 33.4891 34.8867 33.7136V36.3663C34.8867 36.5908 35.0687 36.7728 35.2932 36.7728H38.8841C36.7237 34.9099 38.8841 33.3071 38.8841 33.3071Z" fill="#FFB332"/>
<path d="M28.5593 2.94299C23.9659 3.45662 19.68 4.98549 15.9307 7.30112C16.585 11.0562 18.2807 17.2599 22.2579 16.1574C27.5364 14.6941 31.6694 9.41887 28.5593 2.94299Z" fill="#73C3F9"/>
<path d="M45.9243 4.70512C45.602 3.80662 44.6394 1.70612 42.5401 1.14587C42.4284 1.11599 42.3988 0.971368 42.4898 0.899868L42.8044 0.652618C42.947 0.540493 42.8921 0.312868 42.714 0.278493C41.9523 0.131618 40.3206 -0.115632 38.669 0.0616183C38.2399 0.645368 37.97 1.47437 38.9493 2.23599C40.7026 3.59974 38.2405 4.96512 38.2405 4.96512L36.3848 10.1339H44.8139C44.8348 9.28412 44.9765 7.03474 45.8646 5.43249C45.9881 5.20962 46.0103 4.94487 45.9243 4.70512Z" fill="#56415E"/>
<path d="M38.4137 4.96496C38.4137 4.96496 40.8758 3.59959 39.1224 2.23584C38.1329 1.46621 38.4188 0.627713 38.8557 0.0432129C37.0901 0.199588 35.2647 0.820088 34.4232 2.55059C34.3278 2.74671 34.1481 2.88784 33.9369 2.94246C33.4721 3.06284 32.6357 3.42546 32.0907 4.51234C31.9841 4.72496 31.9659 4.97146 32.0423 5.19659C32.3072 5.97721 32.9526 8.07346 33.0199 10.1337H36.5581L38.4137 4.96496Z" fill="#45304C"/>
<path d="M45.2716 9.7901C45.0076 9.5481 44.4172 9.67072 44.1899 9.81897C44.2397 10.1292 44.2425 10.4466 44.1995 10.76L43.9311 12.7145C43.9311 12.872 43.9261 13.0266 43.917 13.1785C44.5714 13.3758 44.9607 12.7883 45.0156 12.3852C45.0391 12.2117 45.0777 12.0406 45.1311 11.8737C45.3052 11.3301 45.9332 10.3963 45.2716 9.7901Z" fill="#FFAA7B"/>
<path d="M32.497 9.7901C32.761 9.5481 33.3514 9.67072 33.5788 9.81897C33.529 10.1292 33.5262 10.4466 33.5692 10.76L33.8375 12.7145C33.8375 12.872 33.8425 13.0266 33.8517 13.1785C33.1973 13.3758 32.8079 12.7883 32.753 12.3852C32.7294 12.2117 32.6909 12.0406 32.6375 11.8737C32.4634 11.3301 31.8354 10.3963 32.497 9.7901Z" fill="#FC9460"/>
<path d="M44.093 9.21514C44.0327 9.05751 43.9565 8.89788 43.8605 8.74739C43.698 8.49251 43.6265 8.19089 43.6483 7.89026C43.7109 7.02551 43.6773 5.33401 42.542 4.82326C41.5775 4.38926 40.3944 4.64051 39.6399 4.89139C39.1848 5.04276 38.6945 5.05164 38.2344 4.92176C37.4507 5.61676 37.4327 7.04064 37.4893 7.81139C37.5117 8.11614 37.4367 8.42101 37.2719 8.67951C37.1769 8.82851 37.101 8.98614 37.0403 9.14214C36.8432 9.64839 36.7858 10.1974 36.8595 10.7349L37.1338 12.7319C37.1338 15.6029 38.6663 17.5543 39.97 18.5666C40.1238 18.686 40.286 18.7923 40.4545 18.8864C40.7252 18.7641 40.9823 18.6106 41.2193 18.4265C42.4955 17.4355 43.9958 15.5251 43.9958 12.7146L44.2642 10.7601C44.3358 10.239 44.2814 9.70676 44.093 9.21514Z" fill="#FFC7AB"/>
<path d="M39.9833 18.4265C38.707 17.4355 37.2068 15.5251 37.2068 12.7146L36.9384 10.7596C36.8661 10.2334 36.9224 9.69601 37.1153 9.20039C37.1748 9.04764 37.249 8.89326 37.342 8.74751C37.5033 8.49451 37.5768 8.19601 37.5548 7.89764C37.4964 7.10264 37.5185 5.59701 38.4139 4.96501C38.3179 4.94576 38.2225 4.92251 38.129 4.89139C37.3745 4.64051 36.1914 4.38926 35.2269 4.82326C34.0884 5.33551 34.0579 7.03514 34.1213 7.89764C34.1431 8.19601 34.0698 8.49451 33.9085 8.74751C33.8155 8.89339 33.7413 9.04764 33.6818 9.20039C33.4889 9.69589 33.4326 10.2334 33.5049 10.7596L33.7733 12.7146C33.7733 15.5251 35.2736 17.4355 36.5498 18.4265C37.2159 18.9438 38.0379 19.2248 38.8845 19.2248C39.4849 19.2248 40.0725 19.0829 40.6013 18.8163C40.3844 18.7069 40.177 18.577 39.9833 18.4265Z" fill="#FFAA7B"/>
<path d="M13.4402 2.11462C13.4402 2.64388 13.0111 3.073 12.4818 3.073C11.9526 3.073 11.5234 2.644 11.5234 2.11462C11.5234 1.58537 11.9524 1.15625 12.4818 1.15625C13.0112 1.15625 13.4402 1.58537 13.4402 2.11462Z" fill="#876D93"/>
</g>
<defs>
<clipPath id="clip0_119_5957">
<rect width="64" height="64" fill="white"/>
</clipPath>
</defs>
</svg>
