<svg width="40" height="40" viewBox="0 0 40 40" fill="none" xmlns="http://www.w3.org/2000/svg">
<path fill-rule="evenodd" clip-rule="evenodd" d="M39.2185 8.34822V20.0411C39.2185 24.3704 37.3088 28.0949 33.7932 30.6217L24.6327 37.2056L15.472 30.6217C11.9566 28.0949 10.0469 24.3704 10.0469 20.0411V8.34822C21.103 1.38393 28.1621 1.38393 39.2185 8.34822Z" fill="#72D561"/>
<path fill-rule="evenodd" clip-rule="evenodd" d="M36.7347 9.73612C27.5682 4.2394 21.6968 4.23925 12.5303 9.73612V20.0411C12.5303 23.5705 14.0552 26.5451 16.9212 28.605L24.6325 34.1472L32.3435 28.605C35.2095 26.5451 36.7347 23.5707 36.7347 20.0412V9.73612Z" fill="#3CBE52"/>
<path d="M24.7704 26.1629C28.7595 26.0872 31.9319 22.7919 31.8561 18.8027C31.7803 14.8136 28.4851 11.6412 24.4959 11.717C20.5068 11.7928 17.3344 15.0881 17.4102 19.0772C17.486 23.0664 20.7813 26.2387 24.7704 26.1629Z" fill="#64B5F6"/>
<path fill-rule="evenodd" clip-rule="evenodd" d="M27.1118 15.893C27.5207 15.4842 28.1836 15.4842 28.5924 15.893C29.0014 16.302 29.0014 16.9648 28.5924 17.3737L23.7412 22.225C23.2782 22.688 22.5131 22.6153 22.1414 22.083L19.9927 19.379C19.6335 18.9272 19.7086 18.2698 20.1604 17.9105C20.6122 17.5514 21.2696 17.6265 21.6289 18.0783L23.089 19.9158L27.1118 15.893Z" fill="#EFF4F7"/>
<path d="M10.5594 37.0279C16.046 37.0279 20.4938 32.5802 20.4938 27.0936C20.4938 21.607 16.046 17.1592 10.5594 17.1592C5.07277 17.1592 0.625 21.607 0.625 27.0936C0.625 32.5802 5.07277 37.0279 10.5594 37.0279Z" fill="#E6F8FF"/>
<path fill-rule="evenodd" clip-rule="evenodd" d="M5.6583 32.5891H7.26244C7.48994 32.5891 7.67611 32.403 7.67611 32.1755V24.9447C7.67611 24.7171 7.48994 24.531 7.26244 24.531H5.6583C5.4308 24.531 5.24463 24.7172 5.24463 24.9447V32.1755C5.24463 32.403 5.4308 32.5891 5.6583 32.5891Z" fill="#64B5F6"/>
<path fill-rule="evenodd" clip-rule="evenodd" d="M9.16023 32.3482C9.35172 32.5164 9.56687 32.5886 9.81258 32.5886H12.5455C13.6185 32.6053 14.1332 32.1177 15.2292 30.4653L16.9237 27.9103C17.8634 26.4939 16.6592 24.8642 15.0463 24.8771L12.8831 24.8943C13.2492 23.4689 13.7419 21.5642 13.8985 20.9808C13.9068 19.6539 12.7816 19.0495 12.222 19.7014C12.222 19.7014 10.8386 22.0086 9.16016 24.9241C9.16023 27.3815 9.16023 29.8389 9.16023 32.3482Z" fill="#FFD6BD"/>
</svg>
