<svg width="65" height="64" viewBox="0 0 65 64" fill="none" xmlns="http://www.w3.org/2000/svg">
<path d="M41.7319 42.9957L46.0513 44.407L53.8534 46.9225C55.2134 47.3724 56.1337 48.6199 56.1337 50.0412V54.5098V62.1177H50.8676H13.8101H8.53369V54.5098V50.0413C8.53369 48.6199 9.45399 47.3724 10.8038 46.9225L18.6161 44.407L23.0278 43.0926" fill="#FFCC33"/>
<path d="M38.8701 37.095V40.541L32.3359 45.9503L25.8018 40.541V37.095C27.6219 38.4857 29.8818 39.2935 32.3359 39.2935C34.79 39.2935 37.0601 38.4754 38.8701 37.095Z" fill="#FAC2AA"/>
<path d="M38.873 40.5417L41.6494 43.0959L38.2365 49.2153C38.0841 49.4884 37.7309 49.5731 37.4712 49.3988L32.3384 45.9523L38.873 40.5417Z" fill="#FCB910"/>
<path d="M25.8047 40.5431L23.0278 43.0926L26.8617 49.2351C27.0262 49.4985 27.3796 49.567 27.6305 49.3841L32.3389 45.9523L25.8047 40.5431Z" fill="#FCB910"/>
<path d="M33.9602 50.2843L35.9162 48.3314L32.3334 45.951L28.8911 48.4652L30.7102 50.2843H33.9602Z" fill="#F91C1C"/>
<path d="M36.1927 62.1176L33.9645 50.2867H30.7128L28.4785 62.1176H36.1927Z" fill="#FF4848"/>
<path d="M44.6565 17.7061V19.7481H43.7962C43.4275 19.7481 43.1345 20.0507 43.1345 20.4099V20.5422H42.8792C42.8698 20.5233 42.8698 20.5044 42.8698 20.495C42.8509 20.3815 42.8225 20.2681 42.7942 20.1641C42.5106 18.8783 42.0757 17.9803 41.6219 17.3563C41.5935 17.2996 41.5557 17.2523 41.5085 17.2051C41.4612 17.1389 41.4139 17.0727 41.3572 17.016C41.2627 16.8931 41.1587 16.7891 41.0546 16.704C40.9601 16.6 40.8656 16.5244 40.7805 16.4582C40.2133 16.0139 39.769 15.9383 39.769 15.9383C35.3257 21.0433 27.1955 20.287 27.1955 20.287C30.0033 19.2093 29.0674 16.496 29.0674 16.496C27.3846 18.2733 24.7187 17.9046 24.7187 17.9046L23.0548 20.5139L21.5328 22.9056V20.4099C21.5328 20.0506 21.2397 19.7481 20.871 19.7481H20.0107V17.6778C20.0107 14.2839 21.4004 11.2019 23.6315 8.97088C25.8625 6.74928 28.9444 5.36902 32.3478 5.36902C39.1545 5.37849 44.666 10.9089 44.6565 17.7061Z" fill="#4C4947"/>
<path d="M39.7661 15.9365C39.7661 15.9365 42.8821 16.4885 43.1333 22.893H44.6562V18.9997" fill="#4C4947"/>
<path d="M39.8326 12.6375C39.7103 12.6375 39.5881 12.5908 39.4948 12.4975C38.0708 11.0708 36.2811 10.1376 34.3188 9.79986C34.0584 9.75507 33.8839 9.50779 33.9287 9.24745C33.9735 8.98711 34.2245 8.81448 34.4811 8.85741C36.6394 9.22972 38.6064 10.2552 40.1703 11.8219C40.357 12.0086 40.357 12.3118 40.1703 12.4975C40.077 12.5908 39.9548 12.6375 39.8326 12.6375ZM30.6469 9.85865C30.4239 9.85865 30.2252 9.70189 30.1794 9.47421C30.1272 9.21573 30.2952 8.96379 30.5546 8.91247C30.842 8.85461 31.1331 8.80796 31.427 8.77344C31.6846 8.74731 31.9262 8.93113 31.957 9.19334C31.9869 9.45554 31.7993 9.69256 31.5371 9.72336C31.2693 9.75415 31.0043 9.79707 30.7412 9.84932C30.7104 9.85586 30.6787 9.85865 30.6469 9.85865Z" fill="white"/>
<path d="M24.7166 17.9013C24.7166 17.9013 27.3824 18.2755 29.0661 16.4983C29.0661 16.4983 30.0015 19.2109 27.1954 20.2866C27.1954 20.2866 35.3293 21.0434 39.7664 15.9365C39.7664 15.9365 42.8824 16.4885 43.1336 22.893V28.4944C43.1336 34.4608 38.3 39.2944 32.3336 39.2944C29.3505 39.2944 26.6527 38.0924 24.6985 36.1296C22.7443 34.1841 21.5337 31.4776 21.5337 28.4944V22.9056L24.7166 17.9013Z" fill="#FCD5C1"/>
<path d="M42.3436 35.8273H35.307C34.9113 35.8273 34.5903 35.5063 34.5903 35.1107C34.5903 34.715 34.9113 34.3941 35.307 34.3941H42.3436C43.649 34.3941 44.7119 33.3312 44.7119 32.0258V30.1045C44.7119 29.7089 45.0329 29.3879 45.4285 29.3879C45.8241 29.3879 46.1451 29.7089 46.1451 30.1045V32.0258C46.1451 34.1216 44.4394 35.8273 42.3436 35.8273Z" fill="#666666"/>
<path d="M35.3069 35.1387C35.3069 36.0916 34.5344 36.8641 33.5815 36.8641H32.7606C31.8076 36.8641 31.0352 36.0916 31.0352 35.1387C31.0352 34.1858 31.8076 33.4133 32.7606 33.4133H33.5815C34.5344 33.4133 35.3069 34.1858 35.3069 35.1387Z" fill="#4C4947"/>
<path d="M47.2107 21.6589C46.8151 21.6589 46.4941 21.3379 46.4941 20.9422V17.4766C46.4941 9.66828 40.1414 3.31562 32.3331 3.31562C24.5247 3.31562 18.1725 9.66828 18.1725 17.4766V20.9422C18.1725 21.3379 17.8515 21.6589 17.4559 21.6589C17.0603 21.6589 16.7393 21.3379 16.7393 20.9422V17.4766C16.7393 8.87794 23.7344 1.88235 32.3331 1.88235C40.9318 1.88235 47.9273 8.87794 47.9273 17.4766V20.9422C47.9273 21.3379 47.6063 21.6589 47.2107 21.6589Z" fill="#666666"/>
<path d="M51.193 54.5826L47.286 50.6755L43.3789 54.5826H51.193Z" fill="#E5E8F9"/>
<path d="M49.2459 22.4888V27.368C49.2459 28.8792 48.0208 30.1043 46.5096 30.1043H43.7919C43.4282 30.1043 43.1333 29.8094 43.1333 29.4456V20.4111C43.1333 20.0474 43.4282 19.7525 43.7919 19.7525H46.5096C48.0208 19.7525 49.2459 20.9776 49.2459 22.4888Z" fill="#FF4848"/>
<path d="M15.4209 22.4888V27.368C15.4209 28.8792 16.646 30.1043 18.1572 30.1043H20.8748C21.2386 30.1043 21.5335 29.8094 21.5335 29.4456V20.4111C21.5335 20.0474 21.2386 19.7525 20.8748 19.7525H18.1572C16.646 19.7525 15.4209 20.9776 15.4209 22.4888Z" fill="#FF4848"/>
<path d="M52.3366 55.2996H42.2347C41.8391 55.2996 41.5181 54.9786 41.5181 54.583C41.5181 54.1874 41.8391 53.8664 42.2347 53.8664H52.3366C52.7323 53.8664 53.0533 54.1874 53.0533 54.583C53.0533 54.9786 52.7323 55.2996 52.3366 55.2996Z" fill="white"/>
<path d="M25.8451 26.0492C25.6603 26.0492 25.4765 25.9782 25.3365 25.8373C25.0575 25.5555 25.0594 25.1021 25.3402 24.824C26.3657 23.8069 28.0295 23.8041 29.0494 24.8156C29.3312 25.0946 29.3331 25.5481 29.055 25.829C28.7769 26.1107 28.3225 26.1126 28.0416 25.8346C27.576 25.3745 26.8174 25.3773 26.3499 25.8411C26.2099 25.9801 26.027 26.0492 25.8451 26.0492Z" fill="#C97B4A"/>
<path d="M36.1209 26.0492C35.9362 26.0492 35.7514 25.9783 35.6115 25.8364C35.3334 25.5556 35.3353 25.1021 35.6171 24.8231C36.6407 23.8078 38.3054 23.8041 39.3262 24.8156C39.608 25.0946 39.6099 25.5481 39.3318 25.829C39.0547 26.1108 38.5993 26.1126 38.3184 25.8346C37.8528 25.3755 37.0942 25.3792 36.6248 25.842C36.4858 25.9801 36.3029 26.0492 36.1209 26.0492Z" fill="#C97B4A"/>
<path d="M32.3333 30.7941C31.9377 30.7941 31.6167 30.4731 31.6167 30.0775V28.5042C31.6167 28.1086 31.9377 27.7876 32.3333 27.7876C32.729 27.7876 33.05 28.1086 33.05 28.5042V30.0775C33.05 30.4731 32.729 30.7941 32.3333 30.7941Z" fill="#C97B4A"/>
</svg>
