<svg width="64" height="64" viewBox="0 0 64 64" fill="none" xmlns="http://www.w3.org/2000/svg">
<g clip-path="url(#clip0_117_4217)">
<path d="M51.5002 36.3141L51.2379 35.7544L51.1272 34.4927L28.8496 20.1346L27.6002 19.3161L27.2588 19.1882C26.0452 18.7334 24.7697 18.4652 23.4757 18.3926L19.94 18.1939C19.4769 18.1679 19.0124 18.1622 18.5497 18.1919C17.7152 18.2456 16.8773 18.1061 16.102 17.7817L13.5422 16.7106L12.831 17.2159L6.93555 31.8528L7.2638 32.6242L12.227 35.7543L13.7978 36.8583L14.7918 36.8804L30.2874 47.8206L30.4344 48.8262L32.5661 50.3993C33.7498 51.2729 35.4181 51.1727 36.4346 50.1091C37.4238 49.0741 37.4827 47.5158 36.6919 46.4173L37.7608 47.2062C38.9797 48.1058 40.7062 47.9677 41.708 46.8314C42.6786 45.7309 42.6539 44.1161 41.7478 43.0464L42.3482 43.4894C43.5106 44.3472 45.1441 44.2694 46.1667 43.2492C47.2539 42.1646 47.2827 40.4652 46.3477 39.3452L47.2492 40.0106C48.5093 40.9406 50.2838 40.7018 51.2522 39.4627C51.9784 38.5333 52.0226 37.2978 51.5002 36.3141Z" fill="#F1AFA2"/>
<path d="M7.9998 29.2104L6.93555 31.8529L7.2638 32.6243L12.227 35.7544L13.7978 36.8584L14.7918 36.8806L30.2874 47.8207L30.4344 48.8263L32.5661 50.3994C33.7498 51.2731 35.4181 51.1728 36.4346 50.1092C36.5208 50.0189 36.5973 49.9236 36.6694 49.8261L7.9998 29.2104Z" fill="#E99C8C"/>
<path d="M0.0705084 29.9821L6.67413 13.2433C6.87801 12.7265 7.46238 12.4727 7.97926 12.6767L13.2339 14.7497C13.7508 14.9536 14.0045 15.538 13.8006 16.0548L7.19688 32.7936C6.99301 33.3105 6.40863 33.5642 5.89176 33.3602L0.637133 31.2873C0.120258 31.0833 -0.133492 30.4991 0.0705084 29.9821Z" fill="#DBEDFF"/>
<path d="M3.51119 31.576L10.2474 14.5009C10.3809 14.1626 10.6742 13.9358 11.0064 13.8709L7.97919 12.6766C7.46231 12.4728 6.87794 12.7265 6.67406 13.2433L0.0704395 29.9821C-0.133436 30.4991 0.120314 31.0834 0.637189 31.2874L3.56419 32.442C3.42456 32.1846 3.39531 31.8698 3.51119 31.576Z" fill="#B5DCFF"/>
<path d="M13.7326 40.881C12.6571 39.9692 12.5245 38.3581 13.4364 37.2826L15.8237 34.4803C16.7356 33.4048 18.3467 33.2722 19.4222 34.184C20.4977 35.0959 20.6304 36.7071 19.7185 37.7826L17.3311 40.5848C16.4192 41.6603 14.8081 41.7929 13.7326 40.881Z" fill="#FFDECF"/>
<path d="M17.6271 44.1833C16.5516 43.2714 16.419 41.6603 17.3309 40.5848L19.7183 37.7825C20.6301 36.707 22.2413 36.5744 23.3168 37.4863C24.3923 38.3982 24.5249 40.0093 23.613 41.0848L21.2256 43.887C20.3138 44.9627 18.7026 45.0953 17.6271 44.1833Z" fill="#FFDECF"/>
<path d="M21.5222 47.4857C20.4467 46.5738 20.314 44.9627 21.2259 43.8872L23.6133 41.0849C24.5252 40.0094 26.1363 39.8768 27.2118 40.7887C28.2873 41.7005 28.4199 43.3117 27.508 44.3872L25.1207 47.1894C24.2088 48.265 22.5977 48.3975 21.5222 47.4857Z" fill="#FFDECF"/>
<path d="M25.4167 50.788C24.3412 49.8762 24.2086 48.265 25.1204 47.1895L27.5078 44.3873C28.4197 43.3118 30.0308 43.1792 31.1063 44.091C32.1818 45.0029 32.3144 46.614 31.4026 47.6895L29.0152 50.4918C28.1033 51.5673 26.4922 51.6999 25.4167 50.788Z" fill="#FFDECF"/>
<path d="M16.0763 37.6903L18.4636 34.888C18.7333 34.57 19.0648 34.3368 19.4246 34.1863C19.4238 34.1855 19.4231 34.1848 19.4223 34.184C18.3468 33.2722 16.7356 33.4048 15.8238 34.4803L13.4364 37.2826C12.5245 38.3581 12.6571 39.9692 13.7325 40.881C14.49 41.5234 15.5125 41.6452 16.37 41.2867C15.2969 40.3743 15.165 38.7649 16.0763 37.6903Z" fill="#FFCEBE"/>
<path d="M19.9713 40.9926L22.3586 38.1904C22.6283 37.8724 22.9598 37.6391 23.3196 37.4886C23.3188 37.4879 23.3181 37.4871 23.3173 37.4865C22.2418 36.5745 20.6306 36.7071 19.7188 37.7826L17.3314 40.5849C16.4195 41.6604 16.5521 43.2715 17.6276 44.1834C18.3851 44.8258 19.4076 44.9475 20.2651 44.589C19.1919 43.6766 19.06 42.0673 19.9713 40.9926Z" fill="#FFCEBE"/>
<path d="M23.8658 44.2949L26.2532 41.4927C26.5228 41.1747 26.8543 40.9414 27.2142 40.7909C27.2133 40.7902 27.2127 40.7894 27.2118 40.7887C26.1363 39.8768 24.5252 40.0094 23.6133 41.0848L21.2259 43.8872C20.3141 44.9627 20.4467 46.5738 21.5221 47.4857C22.2796 48.1279 23.3021 48.2498 24.1596 47.8912C23.0864 46.9789 22.9546 45.3696 23.8658 44.2949Z" fill="#FFCEBE"/>
<path d="M27.7608 47.5973L30.1482 44.795C30.4178 44.477 30.7493 44.2438 31.1092 44.0933C31.1083 44.0925 31.1077 44.0918 31.1068 44.091C30.0313 43.1792 28.4202 43.3118 27.5083 44.3872L25.1209 47.1894C24.2091 48.2649 24.3417 49.876 25.4171 50.7879C26.1746 51.4302 27.1971 51.552 28.0546 51.1935C26.9814 50.2813 26.8496 48.6719 27.7608 47.5973Z" fill="#FFCEBE"/>
<path d="M51.406 17.2586L50.4751 16.7537L46.7465 18.1301C45.7125 18.5119 44.5977 18.6216 43.5091 18.4491L32.5172 16.7069C31.2771 16.5102 30.0167 16.9209 29.134 17.8139C27.315 19.654 23.8821 22.9035 20.1258 25.3144C19.2866 25.853 19.1621 27.0367 19.885 27.7236C21.3881 29.1519 24.4841 30.3826 29.8303 25.581C30.3227 25.1387 31.078 25.157 31.5356 25.635C33.0942 27.2624 36.9258 30.3944 42.6427 29.4112L51.2378 35.7545L56.6098 32.304L56.8736 31.7241L51.406 17.2586Z" fill="#FFDECF"/>
<path d="M21.592 27.9985C25.3482 25.5875 28.7811 22.3381 30.6001 20.498C31.4828 19.605 32.7432 19.1944 33.9833 19.391L44.9752 21.1332C46.0638 21.3057 47.1786 21.196 48.2126 20.8142L51.9412 19.4379L52.3041 19.6346L51.406 17.2585L50.4751 16.7536L46.7465 18.13C45.7125 18.5117 44.5977 18.6215 43.5091 18.449L32.5172 16.7067C31.2771 16.5101 30.0167 16.9207 29.134 17.8137C27.315 19.6539 23.8821 22.9034 20.1258 25.3142C19.2866 25.8529 19.1621 27.0366 19.885 27.7235C20.206 28.0285 20.6 28.3244 21.0727 28.5545C21.1926 28.3374 21.3652 28.144 21.592 27.9985Z" fill="#FFCEBE"/>
<path d="M63.9295 29.9821L57.3258 13.2433C57.122 12.7265 56.5376 12.4727 56.0207 12.6767L50.7661 14.7497C50.2492 14.9536 49.9955 15.538 50.1993 16.0548L56.803 32.7937C57.0068 33.3106 57.5912 33.5643 58.1081 33.3603L63.3627 31.2873C63.8797 31.0833 64.1335 30.4991 63.9295 29.9821Z" fill="#B16E3D"/>
<path d="M60.6435 31.8724L53.7288 14.345C53.6282 14.0898 53.6352 13.8193 53.7263 13.5818L50.7661 14.7497C50.2492 14.9535 49.9955 15.5379 50.1993 16.0548L56.803 32.7937C57.0068 33.3105 57.5912 33.5643 58.1081 33.3603L60.9065 32.2563C60.7948 32.1525 60.7032 32.0238 60.6435 31.8724Z" fill="#985E33"/>
<path d="M41.5905 46.9519L35.7526 42.4339C35.1903 41.9987 34.3814 42.1018 33.9461 42.6642C33.5109 43.2267 33.614 44.0354 34.1764 44.4707L36.6969 46.4213L37.7605 47.2063C38.9339 48.0723 40.5756 47.9738 41.5905 46.9519Z" fill="#E99C8C"/>
<path d="M38.1219 38.6285C37.6881 39.1921 37.7932 40.0006 38.3567 40.4345L41.7949 43.0816L42.3481 43.4897C43.5104 44.3475 45.1439 44.2697 46.1666 43.2495C46.1766 43.2395 46.1849 43.2286 46.1947 43.2186L39.9279 38.3939C39.3644 37.9599 38.5558 38.0651 38.1219 38.6285Z" fill="#E99C8C"/>
<path d="M44.1465 34.3967C43.5832 33.9628 42.7746 34.0674 42.3405 34.6308C41.9065 35.1942 42.0112 36.0027 42.5746 36.4368L46.3872 39.3745L47.249 40.0106C48.4212 40.8757 50.0376 40.7282 51.0371 39.7061L44.1465 34.3967Z" fill="#E99C8C"/>
</g>
<defs>
<clipPath id="clip0_117_4217">
<rect width="64" height="64" fill="white"/>
</clipPath>
</defs>
</svg>
