<svg width="49" height="48" viewBox="0 0 49 48" fill="none" xmlns="http://www.w3.org/2000/svg">
<g clip-path="url(#clip0_117_3658)">
<path d="M48.5 24C48.5 19.4 48.3 15.2 47.5 12.8C46.7 10 45.7 7.4 43.3 5C40.3 2.2 37.7 1.4 33.7 0.6C30.9 0.2 27.5 0 25.5 0C24.9 0 24.3 0 23.7 0C21.5 0 18.3 0.2 15.3 0.6C11.3 1.4 8.5 2.4 5.7 5C3.1 7.4 2.3 10 1.5 12.8C0.7 15.2 0.5 19.4 0.5 24C0.5 28.6 0.7 32.8 1.5 35.2C2.3 38 3.3 40.6 5.7 43C8.7 45.8 11.3 46.6 15.3 47.4C18.5 48 22.5 48 24.5 48C26.5 48 30.5 48 33.9 47.4C37.7 46.6 40.5 45.8 43.5 43C45.9 40.8 46.9 38.2 47.7 35.2C48.3 32.8 48.5 28.6 48.5 24Z" fill="#379DF1"/>
<path d="M37.6998 30.5998V35.7998C37.6998 36.5998 37.0998 37.1998 36.2998 37.1998C35.6998 37.1998 35.0998 37.1998 34.6998 37.1998C21.8998 37.1998 11.2998 26.5998 11.2998 13.7998C11.2998 13.3998 11.2998 12.9998 11.2998 12.1998C11.4998 11.3998 12.0998 10.7998 12.6998 10.7998H17.8998C18.2998 10.7998 18.4998 10.9998 18.6998 11.5998C18.6998 11.7998 18.6998 11.9998 18.8998 12.3998C19.0998 14.3998 19.6998 16.3998 20.6998 18.1998C20.8998 18.3998 20.6998 18.7998 20.4998 18.9998L17.2998 20.9998C19.0998 25.5998 22.8998 28.9998 27.2998 30.9998L29.4998 27.7998C29.6998 27.5998 30.0998 27.5998 30.2998 27.5998C32.0998 28.3998 34.0998 28.9998 36.0998 29.3998C36.2998 29.3998 36.4998 29.3998 36.8998 29.5998C37.2998 29.7998 37.6998 30.3998 37.6998 30.5998Z" fill="white"/>
</g>
<defs>
<clipPath id="clip0_117_3658">
<rect width="48" height="48" fill="white" transform="translate(0.5)"/>
</clipPath>
</defs>
</svg>
