<svg width="49" height="48" viewBox="0 0 49 48" fill="none" xmlns="http://www.w3.org/2000/svg">
<path fill-rule="evenodd" clip-rule="evenodd" d="M23.0995 46.9687V14.9172L16.4433 12.0718L5.30713 16.8321V46.9687H23.0995Z" fill="#909CD1"/>
<path fill-rule="evenodd" clip-rule="evenodd" d="M16.4434 46.9687H23.0995V14.9172L16.4434 12.0718V46.9687Z" fill="#7986BF"/>
<path fill-rule="evenodd" clip-rule="evenodd" d="M43.3597 46.9688H21.9712V5.60278L32.6654 1.03125L43.3597 5.60278V46.9688Z" fill="#AEAED6"/>
<path fill-rule="evenodd" clip-rule="evenodd" d="M32.6654 46.9688H21.9712V5.60278L32.6654 1.03125V46.9688Z" fill="#D1D1F0"/>
<path fill-rule="evenodd" clip-rule="evenodd" d="M40.124 8.2303C40.124 7.91961 40.3758 7.6678 40.6865 7.6678C40.9972 7.6678 41.249 7.91961 41.249 8.2303V41.7191C41.249 42.0298 40.9972 42.2816 40.6865 42.2816C40.3758 42.2816 40.124 42.0298 40.124 41.7191V8.2303ZM34.7769 5.94458C34.7769 5.63389 35.0287 5.38208 35.3394 5.38208C35.65 5.38208 35.9019 5.63389 35.9019 5.94458V41.7191C35.9019 42.0298 35.65 42.2816 35.3394 42.2816C35.0287 42.2816 34.7769 42.0298 34.7769 41.7191V5.94458ZM37.4504 7.08739C37.4504 6.7767 37.7022 6.52489 38.0129 6.52489C38.3236 6.52489 38.5754 6.7767 38.5754 7.08739V41.7191C38.5754 42.0298 38.3236 42.2816 38.0129 42.2816C37.7022 42.2816 37.4504 42.0298 37.4504 41.7191V7.08739Z" fill="#F3F3FF"/>
<path fill-rule="evenodd" clip-rule="evenodd" d="M12.9667 46.9688H8.78418V36.7511L12.9667 36.353V46.9688Z" fill="#F3F3FF"/>
<path fill-rule="evenodd" clip-rule="evenodd" d="M27.5453 30.2974V26.1861L29.8232 25.8342V30.079L27.5453 30.2974ZM27.5453 23.8191V19.711L29.8232 19.1489V23.3903L27.5453 23.8191ZM27.5453 17.344V13.2327L29.8232 12.4603V16.7051L27.5453 17.344ZM27.5453 10.869L27.5447 7.01952L29.8231 6.04199V10.0199L27.5452 10.869H27.5453ZM23.4766 30.6845V26.8176L25.4979 26.5059V30.4909L23.4766 30.6845ZM23.4766 24.5879V20.7119L25.4987 20.2135V24.208L23.4766 24.5879ZM23.4766 18.4885V14.6122L25.4987 13.9274V17.9222L23.4766 18.4886V18.4885ZM23.4766 12.3815V8.76271L25.4992 7.89571L25.4987 11.6316L23.4766 12.3815Z" fill="#AEAED6"/>
<path fill-rule="evenodd" clip-rule="evenodd" d="M28.2138 30.2331V26.0826L30.4916 25.7308V30.0148L28.2138 30.2331ZM28.2138 23.6931V19.5459L30.4916 18.9838V23.2643L28.2138 23.693V23.6931ZM28.2138 17.1564V13.0059L30.4916 12.2335V16.5175L28.2138 17.1564ZM28.2138 10.6196L28.2132 6.73241L30.4916 5.75488V9.77048L28.2138 10.6196ZM24.145 30.6203V26.7145L26.1665 26.4028V30.4268L24.145 30.6203ZM24.145 24.4621V20.5469L26.1671 20.0486V24.0823L24.145 24.4621ZM24.145 18.3009V14.3857L26.1671 13.7009V17.7345L24.145 18.3009ZM24.145 12.1334V8.47569L26.1677 7.6087L26.1671 11.3834L24.145 12.1333V12.1334Z" fill="#F3F3FF"/>
<path fill-rule="evenodd" clip-rule="evenodd" d="M24.3833 46.9687V35.0501L25.2271 34.9697V46.9687H24.3833Z" fill="#AEAED6"/>
<path fill-rule="evenodd" clip-rule="evenodd" d="M29.4096 46.9688H25.2271V34.9698L29.4096 34.5718V46.9688Z" fill="#F3F3FF"/>
<path fill-rule="evenodd" clip-rule="evenodd" d="M23.9527 35.6542C23.6444 35.6833 23.3709 35.4571 23.3419 35.1488C23.3128 34.8406 23.539 34.5671 23.8473 34.5381L30.1634 33.9368C30.4717 33.9078 30.7451 34.134 30.7742 34.4422C30.8032 34.7505 30.577 35.024 30.2688 35.053L23.9527 35.6542Z" fill="#AEAED6"/>
<path fill-rule="evenodd" clip-rule="evenodd" d="M10.4027 31.4115V28.0618L12.2975 27.6708V31.1504L10.4027 31.4115ZM10.4027 26.132V22.7812L12.2975 22.1824V25.6652L10.4027 26.132ZM10.4022 20.8536V17.717L12.2975 16.9138V20.179L10.4022 20.8537V20.8536ZM7.07471 31.8697V28.7447L8.71993 28.4068V31.6444L7.07471 31.8697ZM7.07471 26.9532V23.8292L8.71993 23.312V26.5487L7.07471 26.9533V26.9532ZM7.07471 22.0325V19.1176L8.72096 18.4242L8.72049 21.4506L7.07471 22.0325Z" fill="#7986BF"/>
<path fill-rule="evenodd" clip-rule="evenodd" d="M11.0146 31.327V27.9354L12.9093 27.5444V31.0659L11.0146 31.327ZM11.0146 25.9813V22.5876L12.9093 21.9889V25.5145L11.0146 25.9813ZM11.014 20.6356V17.4575L12.9093 16.6543V19.961L11.014 20.6356ZM7.68652 31.7851V28.6182L9.33174 28.2803V31.5599L7.68652 31.7852V31.7851ZM7.68652 26.8025V23.6356L9.33174 23.1184V26.3979L7.68652 26.8025V26.8025ZM7.68652 21.8158V18.858L9.33277 18.1645L9.3323 21.2338L7.68662 21.8157L7.68652 21.8158Z" fill="#F3F3FF"/>
<path fill-rule="evenodd" clip-rule="evenodd" d="M8.78377 46.9687H8.08496V36.8175L8.78377 36.751V46.9687Z" fill="#7986BF"/>
<path d="M1.4165 44.624H47.25V46.9688H1.4165V44.624Z" fill="#E6B17C"/>
<path d="M1.4165 45.7964H47.25V46.9687H1.4165V45.7964Z" fill="#D19458"/>
<path fill-rule="evenodd" clip-rule="evenodd" d="M8.03029 37.3858C7.72204 37.4149 7.44857 37.1887 7.41951 36.8804C7.39044 36.5722 7.61666 36.2987 7.92491 36.2696L13.7198 35.7181C14.028 35.689 14.3015 35.9152 14.3306 36.2235C14.3596 36.5317 14.1334 36.8052 13.8252 36.8343L8.03029 37.3858Z" fill="#3D4A75"/>
</svg>
