<svg width="48" height="48" viewBox="0 0 48 48" fill="none" xmlns="http://www.w3.org/2000/svg">
<g clip-path="url(#clip0_119_6327)">
<path d="M32.9421 31.5865L33.7558 31L33.0793 14.7493C33.055 14.1651 32.5742 13.7039 31.9895 13.7039H5.24287C4.65805 13.7039 4.1773 14.1651 4.15302 14.7493L2.93652 43.9709L3.24609 44.3809H30.4522L23.9951 36.3083L28.5003 31.5866H32.9421V31.5865Z" fill="#FF8086"/>
<path d="M9.0703 14.7493C9.09459 14.1651 9.57543 13.7039 10.1601 13.7039H5.24287C4.65805 13.7039 4.1773 14.1651 4.15302 14.7493L2.93652 43.9709L3.24609 44.3809H8.16337L7.8538 43.9709L9.0703 14.7493Z" fill="#E5646E"/>
<path d="M29.8806 43.9709H29.4644H2.57772C2.11554 43.9709 1.74072 44.3456 1.74072 44.8079V47.1631C1.74072 47.6253 2.11544 48.0001 2.57772 48.0001H30.1579H33.7977V47.728L29.8806 43.9709Z" fill="#FF9A9F"/>
<path d="M6.658 47.163V44.8078C6.658 44.3456 7.03272 43.9708 7.495 43.9708H2.57772C2.11554 43.9708 1.74072 44.3455 1.74072 44.8078V47.163C1.74072 47.6252 2.11544 48 2.57772 48H7.495C7.03272 48 6.658 47.6253 6.658 47.163Z" fill="#FF8086"/>
<path d="M46.248 29.7696C46.1795 29.3812 45.8092 29.122 45.4211 29.1904L43.5608 29.5181C43.1725 29.5866 42.9133 29.9568 42.9816 30.345C43.0501 30.7334 43.4205 30.9926 43.8085 30.9242L45.6688 30.5964C46.0571 30.528 46.3164 30.1578 46.248 29.7696Z" fill="#C3DDFF"/>
<path d="M43.4141 25.3196C43.0913 25.0935 42.646 25.1719 42.4199 25.4948L41.3363 27.0419C41.11 27.3649 41.1885 27.8099 41.5114 28.0361C41.8344 28.2623 42.2795 28.1838 42.5056 27.861L43.5893 26.3138C43.8155 25.9909 43.737 25.5457 43.4141 25.3196Z" fill="#C3DDFF"/>
<path d="M39.0903 24.7562C39.022 24.368 38.6514 24.1088 38.2635 24.177C37.8751 24.2454 37.6159 24.6157 37.6843 25.0039L38.012 26.8642C38.0805 27.2526 38.4509 27.5118 38.8389 27.4434C39.2272 27.3749 39.4864 27.0047 39.4181 26.6165L39.0903 24.7562Z" fill="#C3DDFF"/>
<path d="M29.4318 16.3436V10.8156C29.4318 4.85184 24.58 0 18.6163 0C12.6526 0 7.80071 4.85184 7.80071 10.8156V16.3436C6.91646 16.6423 6.27783 17.4791 6.27783 18.4628C6.27783 19.6962 7.28124 20.6995 8.51452 20.6995C9.7478 20.6995 10.7512 19.6961 10.7512 18.4628C10.7512 17.4791 10.1126 16.6423 9.22833 16.3436V10.8156C9.22833 5.63906 13.4398 1.42762 18.6163 1.42762C23.7928 1.42762 28.0042 5.63906 28.0042 10.8156V16.3436C27.12 16.6423 26.4813 17.4791 26.4813 18.4628C26.4813 19.6962 27.4847 20.6995 28.718 20.6995C29.9514 20.6995 30.9547 19.6961 30.9547 18.4628C30.9547 17.4791 30.3161 16.6423 29.4318 16.3436ZM8.51452 19.2718C8.06846 19.2718 7.70546 18.9089 7.70546 18.4627C7.70546 18.0167 8.06836 17.6537 8.51452 17.6537C8.96058 17.6537 9.32358 18.0166 9.32358 18.4627C9.32358 18.9089 8.96068 19.2718 8.51452 19.2718ZM28.718 19.2718C28.272 19.2718 27.909 18.9089 27.909 18.4627C27.909 18.0167 28.2719 17.6537 28.718 17.6537C29.1641 17.6537 29.5271 18.0166 29.5271 18.4627C29.5271 18.9089 29.1642 19.2718 28.718 19.2718Z" fill="#FFE07D"/>
<path d="M18.6699 29.8693C22.7012 29.8693 25.9692 28.3244 25.9692 26.4186C25.9692 24.5129 22.7012 22.968 18.6699 22.968C14.6386 22.968 11.3706 24.5129 11.3706 26.4186C11.3706 28.3244 14.6386 29.8693 18.6699 29.8693Z" fill="#FFF0AF"/>
<path d="M16.2879 26.4186C16.2879 24.9208 18.3071 23.6464 21.1285 23.1692C20.3601 23.0392 19.5328 22.968 18.6699 22.968C14.6386 22.968 11.3706 24.5129 11.3706 26.4186C11.3706 28.3244 14.6386 29.8693 18.6699 29.8693C19.5328 29.8693 20.3602 29.798 21.1285 29.6681C18.3071 29.191 16.2879 27.9165 16.2879 26.4186Z" fill="#FFE07D"/>
<path d="M40.1615 32.0526L40.1307 31.5865C39.7739 31.2119 39.2791 31 38.7617 31H28.7498C28.2325 31 27.7378 31.212 27.3809 31.5865V32.0526L29.9672 36.3082H37.957L40.1615 32.0526Z" fill="#C3DDFF"/>
<path d="M28.7498 31C28.2325 31 27.7378 31.212 27.3809 31.5865V32.0526L28.681 34.1918L30.9208 30.9999H28.7498V31Z" fill="#A4CCFF"/>
<path d="M33.7557 31L30.1577 36.3082L30.3821 36.5267H36.9911L37.3538 36.3082L33.7557 31Z" fill="#DBEAFF"/>
<path d="M27.3809 31.5865L23.7865 35.3591C23.5428 35.615 23.4067 35.9548 23.4067 36.3082L23.6446 36.5268H29.7827L30.1577 36.3082L27.3809 31.5865Z" fill="#DBEAFF"/>
<path d="M27.1958 36.3081L28.8072 34.0118L27.3809 31.5865L23.7865 35.3591C23.5428 35.615 23.4067 35.9548 23.4067 36.3082L23.6446 36.5268H27.3093L27.1958 36.3081Z" fill="#C3DDFF"/>
<path d="M44.1049 36.3081C44.1049 35.9547 43.9689 35.615 43.7252 35.3591L40.1308 31.5865L37.354 36.3081L37.63 36.5267H43.9235L44.1049 36.3081Z" fill="#DBEAFF"/>
<path d="M23.4067 36.3082C23.4067 36.7048 23.5482 37.0884 23.8057 37.3901L32.2808 47.3197C32.6493 47.7514 33.1883 47.9999 33.7559 47.9999C34.3235 47.9999 34.8625 47.7513 35.231 47.3197L43.706 37.3901C43.9636 37.0884 44.1051 36.7047 44.1051 36.3082H23.4067Z" fill="#A4CCFF"/>
<path d="M27.1958 36.3082H23.4067C23.4067 36.7048 23.5482 37.0884 23.8057 37.3901L32.2807 47.3197C32.531 47.6129 32.86 47.8213 33.2232 47.9251L27.1958 36.3082Z" fill="#8BB3EA"/>
<path d="M33.7558 48C33.9379 48 34.117 47.9741 34.2884 47.9251L37.3539 36.3082H30.1577L33.2232 47.9251C33.3948 47.9741 33.5738 48 33.7558 48Z" fill="#C3DDFF"/>
</g>
<defs>
<clipPath id="clip0_119_6327">
<rect width="48" height="48" fill="white"/>
</clipPath>
</defs>
</svg>
