<svg width="64" height="64" viewBox="0 0 64 64" fill="none" xmlns="http://www.w3.org/2000/svg">
<path d="M3 3H35V41H3V3Z" fill="#C8DBF7"/>
<path d="M53 18V48H28C27.7373 48.0001 27.4772 47.9484 27.2345 47.8479C26.9919 47.7474 26.7714 47.6001 26.5856 47.4144C26.3999 47.2286 26.2526 47.0081 26.1521 46.7655C26.0516 46.5228 25.9999 46.2627 26 46V24.8287C26.0019 24.2984 26.2125 23.7901 26.5862 23.4138L33.4138 16.5862C33.7901 16.2125 34.2984 16.0019 34.8288 16H51C51.2627 15.9999 51.5228 16.0516 51.7655 16.1521C52.0081 16.2526 52.2286 16.3999 52.4144 16.5856C52.6001 16.7714 52.7474 16.9919 52.8479 17.2345C52.9484 17.4772 53.0001 17.7373 53 18Z" fill="#F6BB00"/>
<path d="M35 3L29 12H9L3 3H35Z" fill="#E0EDFF"/>
<path d="M15.0516 25.3163L14.946 24.9995C14.6381 24.0868 14.5734 23.1097 14.7583 22.1643C14.9432 21.219 15.3712 20.3382 16.0002 19.6088V10C16.0002 9.20435 16.3163 8.44129 16.8789 7.87868C17.4415 7.31607 18.2046 7 19.0002 7C19.7959 7 20.559 7.31607 21.1216 7.87868C21.6842 8.44129 22.0002 9.20435 22.0002 10V19C21.9993 19.7954 21.683 20.5579 21.1206 21.1203C20.5582 21.6827 19.7956 21.9991 19.0002 22V20C19.2654 19.9997 19.5195 19.8942 19.707 19.7068C19.8945 19.5193 19.9999 19.2651 20.0002 19V10C20.0002 9.73478 19.8949 9.48043 19.7074 9.29289C19.5198 9.10536 19.2655 9 19.0002 9C18.735 9 18.4807 9.10536 18.2931 9.29289C18.1056 9.48043 18.0002 9.73478 18.0002 10V20C18.0002 20.2652 17.8949 20.5196 17.7073 20.7072C17.2357 21.1755 16.9048 21.7667 16.7521 22.4135C16.5994 23.0604 16.631 23.7371 16.8433 24.3669L16.9489 24.6837L15.0516 25.3163Z" fill="#A4B9E0"/>
<path d="M15 37H7V31H15V37Z" fill="#B2C6EB"/>
<path d="M18 31H26V33H18V31Z" fill="#B2C6EB"/>
<path d="M18 35H20V37H18V35Z" fill="#B2C6EB"/>
<path d="M22 35H26V37H22V35Z" fill="#B2C6EB"/>
<path d="M30 30H32V32H30V30Z" fill="#EDA600"/>
<path d="M34 30H40V32H34V30Z" fill="#EDA600"/>
<path d="M42 30H48V32H42V30Z" fill="#EDA600"/>
<path d="M30 35H32V37H30V35Z" fill="#EDA600"/>
<path d="M34 35H48V37H34V35Z" fill="#EDA600"/>
<path d="M37 19H39V21H37V19Z" fill="#EDA600"/>
<path d="M41 19H47V21H41V19Z" fill="#EDA600"/>
<path d="M43 23H47V25H43V23Z" fill="#EDA600"/>
<path d="M37 23H41V25H37V23Z" fill="#EDA600"/>
<path d="M37 42H40V44H37V42Z" fill="#EDA600"/>
<path d="M42 42H47V44H42V42Z" fill="#EDA600"/>
<path d="M41 53H61V61H41V53Z" fill="#C78640"/>
<path d="M48 53V44C48 42.7018 47.5789 41.4386 46.8 40.4C45.6316 38.8421 45 36.9473 45 35C45 33.4087 45.6321 31.8826 46.7574 30.7574C47.8826 29.6321 49.4087 29 51 29C52.5913 29 54.1174 29.6321 55.2427 30.7574C56.3679 31.8826 57 33.4087 57 35C57 36.9473 56.3684 38.8421 55.2 40.4C54.4211 41.4386 54 42.7018 54 44V53H48Z" fill="#B1712C"/>
<path d="M33.9999 16.1812V22C34 22.2627 33.9483 22.5228 33.8478 22.7654C33.7473 23.0081 33.6 23.2286 33.4143 23.4144C33.2285 23.6001 33.008 23.7474 32.7654 23.8479C32.5227 23.9484 32.2626 24.0001 31.9999 24H26.1812C26.2796 23.7817 26.4168 23.583 26.5862 23.4138L33.4137 16.5862C33.583 16.4169 33.7816 16.2796 33.9999 16.1812Z" fill="#FCD453"/>
<path d="M19 12C20.1046 12 21 11.1046 21 10C21 8.89543 20.1046 8 19 8C17.8954 8 17 8.89543 17 10C17 11.1046 17.8954 12 19 12Z" fill="#FAC623"/>
<path d="M19 22C20.1046 22 21 21.1046 21 20C21 18.8954 20.1046 18 19 18C17.8954 18 17 18.8954 17 20C17 21.1046 17.8954 22 19 22Z" fill="#FAC623"/>
</svg>
