<svg width="49" height="48" viewBox="0 0 49 48" fill="none" xmlns="http://www.w3.org/2000/svg">
<g clip-path="url(#clip0_117_3674)">
<path d="M24.506 0H24.494C11.261 0 0.5 10.764 0.5 24C0.5 29.25 2.192 34.116 5.069 38.067L2.078 46.983L11.303 44.034C15.098 46.548 19.625 48 24.506 48C37.739 48 48.5 37.233 48.5 24C48.5 10.767 37.739 0 24.506 0Z" fill="#4CAF50"/>
<path d="M38.4711 33.8911C37.8922 35.5261 35.5942 36.8821 33.7612 37.2781C32.5072 37.5451 30.8692 37.7581 25.3552 35.4721C18.3022 32.5501 13.7602 25.383 13.4062 24.9181C13.0672 24.4531 10.5562 21.1231 10.5562 17.6791C10.5562 14.2351 12.3052 12.5581 13.0102 11.8381C13.5892 11.2471 14.5462 10.9771 15.4642 10.9771C15.7612 10.9771 16.0282 10.9921 16.2682 11.0041C16.9732 11.0341 17.3272 11.0761 17.7922 12.1891C18.3712 13.5841 19.7812 17.0281 19.9492 17.3821C20.1202 17.7361 20.2912 18.2161 20.0512 18.6811C19.8262 19.1611 19.6282 19.3741 19.2742 19.7821C18.9202 20.1901 18.5842 20.5021 18.2302 20.9401C17.9062 21.3211 17.5402 21.7291 17.9482 22.4341C18.3562 23.1241 19.7662 25.425 21.8422 27.2731C24.5212 29.6581 26.6932 30.4201 27.4701 30.7441C28.0492 30.9841 28.7392 30.9271 29.1622 30.4771C29.6992 29.8981 30.3622 28.9381 31.0372 27.9931C31.5172 27.3151 32.1232 27.2311 32.7592 27.4711C33.4072 27.6961 36.8362 29.3911 37.5412 29.7421C38.2462 30.0961 38.7112 30.2641 38.8822 30.5611C39.0501 30.8581 39.0501 32.2531 38.4711 33.8911Z" fill="#FAFAFA"/>
</g>
<defs>
<clipPath id="clip0_117_3674">
<rect width="48" height="48" fill="white" transform="translate(0.5)"/>
</clipPath>
</defs>
</svg>
